# This file uses centimeters as units for non-parametric coordinates.

mtllib glowingsphere.mtl
g default
v 0.167275 0.008135 -0.058045
v 0.142034 0.007076 -0.104878
v 0.103124 0.005836 -0.141579
v 0.054128 0.004822 -0.164992
v -0.000222 0.004427 -0.173049
v -0.054572 0.004822 -0.164992
v -0.103567 0.005836 -0.141579
v -0.142477 0.007076 -0.104878
v -0.167718 0.008135 -0.058045
v -0.176986 0.008764 -0.005099
v -0.169298 0.008929 0.049223
v -0.145052 0.008790 0.099674
v -0.106157 0.008554 0.140809
v -0.056190 0.008371 0.167781
v -0.000222 0.008305 0.177181
v 0.055747 0.008371 0.167781
v 0.105713 0.008554 0.140809
v 0.144609 0.008790 0.099674
v 0.168855 0.008929 0.049223
v 0.176543 0.008764 -0.005099
v 0.653500 0.080866 -0.265720
v 0.560017 0.074980 -0.423659
v 0.414370 0.058625 -0.555134
v 0.221494 0.039768 -0.647573
v -0.000222 0.031209 -0.681384
v -0.221937 0.039768 -0.647573
v -0.414814 0.058625 -0.555134
v -0.560460 0.074980 -0.423659
v -0.653943 0.080866 -0.265720
v -0.691382 0.077049 -0.081759
v -0.671884 0.065447 0.125470
v -0.596211 0.050027 0.342809
v -0.458100 0.041578 0.541637
v -0.252623 0.042309 0.683534
v -0.000222 0.043962 0.735350
v 0.252180 0.042309 0.683534
v 0.457657 0.041578 0.541637
v 0.595768 0.050027 0.342809
v 0.671440 0.065447 0.125470
v 0.690938 0.077049 -0.081759
v 1.089457 0.348931 -0.475841
v 0.937826 0.343274 -0.706036
v 0.700298 0.310713 -0.911754
v 0.369361 0.260807 -1.076703
v -0.000222 0.237097 -1.139762
v -0.369805 0.260807 -1.076703
v -0.700741 0.310713 -0.911754
v -0.938269 0.343274 -0.706036
v -1.089900 0.348931 -0.475841
v -1.153280 0.340871 -0.194481
v -1.136557 0.304757 0.146157
v -1.039368 0.250812 0.555633
v -0.826020 0.233333 0.948238
v -0.462356 0.233482 1.234590
v -0.000222 0.229100 1.345520
v 0.461913 0.233482 1.234590
v 0.825577 0.233333 0.948238
v 1.038924 0.250812 0.555633
v 1.136113 0.304757 0.146157
v 1.152837 0.340871 -0.194481
v 1.159206 0.642197 -0.500380
v 0.999608 0.625235 -0.748247
v 0.738949 0.592615 -0.970282
v 0.385128 0.539374 -1.140761
v -0.000222 0.512671 -1.200141
v -0.385572 0.539374 -1.140761
v -0.739392 0.592615 -0.970282
v -1.000051 0.625235 -0.748247
v -1.159649 0.642197 -0.500380
v -1.221812 0.652298 -0.195678
v -1.214431 0.611033 0.174773
v -1.135534 0.535177 0.631148
v -0.919679 0.510901 1.066920
v -0.510756 0.505005 1.394599
v -0.000222 0.494730 1.517700
v 0.510312 0.505005 1.394599
v 0.919236 0.510901 1.066920
v 1.135091 0.535177 0.631148
v 1.213987 0.611033 0.174773
v 1.221369 0.652298 -0.195678
v 0.993052 1.006694 -0.393707
v 0.854865 0.946170 -0.638338
v 0.622007 0.890245 -0.857897
v 0.322711 0.843063 -1.015656
v -0.000222 0.822316 -1.063009
v -0.323155 0.843063 -1.015656
v -0.622451 0.890245 -0.857897
v -0.855308 0.946170 -0.638338
v -0.993495 1.006694 -0.393707
v -1.039920 1.034949 -0.087040
v -1.045877 1.018428 0.273243
v -1.034304 0.957982 0.660838
v -0.859422 0.891614 1.052009
v -0.493925 0.842525 1.323136
v -0.000222 0.827646 1.433651
v 0.493482 0.842525 1.323136
v 0.858979 0.891614 1.052009
v 1.033860 0.957982 0.660838
v 1.045433 1.018428 0.273243
v 1.039476 1.034949 -0.087040
v 0.734267 1.237126 -0.248430
v 0.635086 1.167355 -0.451539
v 0.470157 1.087833 -0.633785
v 0.245897 1.039170 -0.787467
v -0.000222 1.025642 -0.850195
v -0.246340 1.039170 -0.787467
v -0.470600 1.087833 -0.633785
v -0.635529 1.167355 -0.451539
v -0.734710 1.237126 -0.248430
v -0.779337 1.263785 0.001448
v -0.792415 1.277908 0.286029
v -0.787287 1.293369 0.577401
v -0.665757 1.252148 0.853644
v -0.392182 1.173003 1.080869
v -0.000222 1.143201 1.180138
v 0.391738 1.173003 1.080869
v 0.665314 1.252148 0.853644
v 0.786844 1.293369 0.577401
v 0.791971 1.277909 0.286030
v 0.778894 1.263785 0.001448
v 0.573002 1.320223 -0.164040
v 0.493959 1.264376 -0.337399
v 0.366011 1.198517 -0.488875
v 0.193493 1.154941 -0.617866
v -0.000222 1.142352 -0.673349
v -0.193936 1.154941 -0.617866
v -0.366454 1.198516 -0.488875
v -0.494402 1.264376 -0.337399
v -0.573445 1.320223 -0.164040
v -0.609808 1.349351 0.039196
v -0.616348 1.367052 0.256224
v -0.598969 1.395664 0.483930
v -0.502523 1.393344 0.705622
v -0.295144 1.348384 0.898948
v -0.000222 1.323922 0.986607
v 0.294701 1.348384 0.898948
v 0.502080 1.393344 0.705622
v 0.598525 1.395664 0.483930
v 0.615905 1.367052 0.256225
v 0.609365 1.349351 0.039196
v 0.201756 1.409669 0.012244
v 0.170892 1.395528 -0.059855
v 0.124170 1.382659 -0.119373
v 0.065254 1.373635 -0.159617
v -0.000222 1.370404 -0.174067
v -0.065698 1.373635 -0.159617
v -0.124614 1.382659 -0.119373
v -0.171335 1.395528 -0.059855
v -0.202199 1.409669 0.012244
v -0.215153 1.423234 0.090671
v -0.209518 1.435817 0.169140
v -0.185009 1.447884 0.241106
v -0.140533 1.458892 0.300019
v -0.076656 1.466422 0.338928
v -0.000222 1.468940 0.352570
v 0.076213 1.466422 0.338928
v 0.140090 1.458892 0.300020
v 0.184566 1.447884 0.241106
v 0.209074 1.435817 0.169140
v 0.214709 1.423234 0.090671
v -0.000222 0.004641 0.000472
v -0.000222 1.424905 0.107895
vt 0.000000 0.050000
vt 0.050000 0.050000
vt 0.100000 0.050000
vt 0.150000 0.050000
vt 0.200000 0.050000
vt 0.250000 0.050000
vt 0.300000 0.050000
vt 0.350000 0.050000
vt 0.400000 0.050000
vt 0.450000 0.050000
vt 0.500000 0.050000
vt 0.550000 0.050000
vt 0.600000 0.050000
vt 0.650000 0.050000
vt 0.700000 0.050000
vt 0.750000 0.050000
vt 0.800000 0.050000
vt 0.850000 0.050000
vt 0.900000 0.050000
vt 0.950000 0.050000
vt 1.000000 0.050000
vt 0.000000 0.200000
vt 0.050000 0.200000
vt 0.100000 0.200000
vt 0.150000 0.200000
vt 0.200000 0.200000
vt 0.250000 0.200000
vt 0.300000 0.200000
vt 0.350000 0.200000
vt 0.400000 0.200000
vt 0.450000 0.200000
vt 0.500000 0.200000
vt 0.550000 0.200000
vt 0.600000 0.200000
vt 0.650000 0.200000
vt 0.700000 0.200000
vt 0.750000 0.200000
vt 0.800000 0.200000
vt 0.850000 0.200000
vt 0.900000 0.200000
vt 0.950000 0.200000
vt 1.000000 0.200000
vt 0.000000 0.400000
vt 0.050000 0.400000
vt 0.100000 0.400000
vt 0.150000 0.400000
vt 0.200000 0.400000
vt 0.250000 0.400000
vt 0.300000 0.400000
vt 0.350000 0.400000
vt 0.400000 0.400000
vt 0.450000 0.400000
vt 0.500000 0.400000
vt 0.550000 0.400000
vt 0.600000 0.400000
vt 0.650000 0.400000
vt 0.700000 0.400000
vt 0.750000 0.400000
vt 0.800000 0.400000
vt 0.850000 0.400000
vt 0.900000 0.400000
vt 0.950000 0.400000
vt 1.000000 0.400000
vt 0.000000 0.550000
vt 0.050000 0.550000
vt 0.100000 0.550000
vt 0.150000 0.550000
vt 0.200000 0.550000
vt 0.250000 0.550000
vt 0.300000 0.550000
vt 0.350000 0.550000
vt 0.400000 0.550000
vt 0.450000 0.550000
vt 0.500000 0.550000
vt 0.550000 0.550000
vt 0.600000 0.550000
vt 0.650000 0.550000
vt 0.700000 0.550000
vt 0.750000 0.550000
vt 0.800000 0.550000
vt 0.850000 0.550000
vt 0.900000 0.550000
vt 0.950000 0.550000
vt 1.000000 0.550000
vt 0.000000 0.700000
vt 0.050000 0.700000
vt 0.100000 0.700000
vt 0.150000 0.700000
vt 0.200000 0.700000
vt 0.250000 0.700000
vt 0.300000 0.700000
vt 0.350000 0.700000
vt 0.400000 0.700000
vt 0.450000 0.700000
vt 0.500000 0.700000
vt 0.550000 0.700000
vt 0.600000 0.700000
vt 0.650000 0.700000
vt 0.700000 0.700000
vt 0.750000 0.700000
vt 0.800000 0.700000
vt 0.850000 0.700000
vt 0.900000 0.700000
vt 0.950000 0.700000
vt 1.000000 0.700000
vt 0.000000 0.800000
vt 0.050000 0.800000
vt 0.100000 0.800000
vt 0.150000 0.800000
vt 0.200000 0.800000
vt 0.250000 0.800000
vt 0.300000 0.800000
vt 0.350000 0.800000
vt 0.400000 0.800000
vt 0.450000 0.800000
vt 0.500000 0.800000
vt 0.550000 0.800000
vt 0.600000 0.800000
vt 0.650000 0.800000
vt 0.700000 0.800000
vt 0.750000 0.800000
vt 0.800000 0.800000
vt 0.850000 0.800000
vt 0.900000 0.800000
vt 0.950000 0.800000
vt 1.000000 0.800000
vt 0.000000 0.850000
vt 0.050000 0.850000
vt 0.100000 0.850000
vt 0.150000 0.850000
vt 0.200000 0.850000
vt 0.250000 0.850000
vt 0.300000 0.850000
vt 0.350000 0.850000
vt 0.400000 0.850000
vt 0.450000 0.850000
vt 0.500000 0.850000
vt 0.550000 0.850000
vt 0.600000 0.850000
vt 0.650000 0.850000
vt 0.700000 0.850000
vt 0.750000 0.850000
vt 0.800000 0.850000
vt 0.850000 0.850000
vt 0.900000 0.850000
vt 0.950000 0.850000
vt 1.000000 0.850000
vt 0.000000 0.950000
vt 0.050000 0.950000
vt 0.100000 0.950000
vt 0.150000 0.950000
vt 0.200000 0.950000
vt 0.250000 0.950000
vt 0.300000 0.950000
vt 0.350000 0.950000
vt 0.400000 0.950000
vt 0.450000 0.950000
vt 0.500000 0.950000
vt 0.550000 0.950000
vt 0.600000 0.950000
vt 0.650000 0.950000
vt 0.700000 0.950000
vt 0.750000 0.950000
vt 0.800000 0.950000
vt 0.850000 0.950000
vt 0.900000 0.950000
vt 0.950000 0.950000
vt 1.000000 0.950000
vt 0.025000 0.000000
vt 0.075000 0.000000
vt 0.125000 0.000000
vt 0.175000 0.000000
vt 0.225000 0.000000
vt 0.275000 0.000000
vt 0.325000 0.000000
vt 0.375000 0.000000
vt 0.425000 0.000000
vt 0.475000 0.000000
vt 0.525000 0.000000
vt 0.575000 0.000000
vt 0.625000 0.000000
vt 0.675000 0.000000
vt 0.725000 0.000000
vt 0.775000 0.000000
vt 0.825000 0.000000
vt 0.875000 0.000000
vt 0.925000 0.000000
vt 0.975000 0.000000
vt 0.025000 1.000000
vt 0.075000 1.000000
vt 0.125000 1.000000
vt 0.175000 1.000000
vt 0.225000 1.000000
vt 0.275000 1.000000
vt 0.325000 1.000000
vt 0.375000 1.000000
vt 0.425000 1.000000
vt 0.475000 1.000000
vt 0.525000 1.000000
vt 0.575000 1.000000
vt 0.625000 1.000000
vt 0.675000 1.000000
vt 0.725000 1.000000
vt 0.775000 1.000000
vt 0.825000 1.000000
vt 0.875000 1.000000
vt 0.925000 1.000000
vt 0.975000 1.000000
vn 0.123221 -0.991677 -0.037338
vn 0.122815 -0.991768 -0.036224
vn 0.329330 -0.919707 -0.213730
vn 0.364226 -0.920240 -0.143171
vn 0.109140 -0.993331 -0.037187
vn 0.276146 -0.925132 -0.260526
vn 0.067310 -0.996648 -0.046488
vn 0.167639 -0.939234 -0.299560
vn -0.000000 -0.998630 -0.052335
vn -0.000000 -0.948359 -0.317200
vn -0.067311 -0.996649 -0.046487
vn -0.167640 -0.939234 -0.299560
vn -0.109140 -0.993331 -0.037187
vn -0.276146 -0.925132 -0.260526
vn -0.122815 -0.991768 -0.036225
vn -0.329330 -0.919707 -0.213730
vn -0.123221 -0.991677 -0.037339
vn -0.364226 -0.920240 -0.143172
vn -0.119184 -0.992357 -0.031991
vn -0.379580 -0.922711 -0.067258
vn -0.109076 -0.993796 -0.021712
vn -0.360788 -0.932575 -0.011660
vn -0.086963 -0.996206 0.003406
vn -0.305147 -0.949700 0.070392
vn -0.051315 -0.998008 0.036701
vn -0.211348 -0.962587 0.169582
vn -0.019173 -0.998208 0.056685
vn -0.106498 -0.967545 0.229160
vn -0.000000 -0.998112 0.061423
vn 0.000000 -0.969638 0.244544
vn 0.019173 -0.998208 0.056685
vn 0.106498 -0.967545 0.229160
vn 0.051316 -0.998008 0.036701
vn 0.211348 -0.962587 0.169581
vn 0.086963 -0.996206 0.003406
vn 0.305147 -0.949700 0.070392
vn 0.109076 -0.993796 -0.021712
vn 0.360788 -0.932575 -0.011660
vn 0.119184 -0.992357 -0.031991
vn 0.379580 -0.922711 -0.067257
vn 0.598383 -0.644993 -0.475313
vn 0.708752 -0.644713 -0.286384
vn 0.471645 -0.647146 -0.598960
vn 0.279096 -0.672930 -0.685034
vn -0.000000 -0.690583 -0.723253
vn -0.279096 -0.672930 -0.685034
vn -0.471645 -0.647146 -0.598960
vn -0.598383 -0.644993 -0.475313
vn -0.708751 -0.644714 -0.286384
vn -0.772632 -0.627986 -0.093131
vn -0.753532 -0.656308 0.038072
vn -0.657579 -0.728358 0.192572
vn -0.489234 -0.775862 0.398356
vn -0.262512 -0.802043 0.536484
vn 0.000000 -0.816226 0.577732
vn 0.262512 -0.802043 0.536484
vn 0.489234 -0.775862 0.398356
vn 0.657579 -0.728358 0.192572
vn 0.753532 -0.656308 0.038072
vn 0.772632 -0.627985 -0.093130
vn 0.725249 0.181086 -0.664245
vn 0.907042 0.186164 -0.377648
vn 0.527760 0.152281 -0.835631
vn 0.293674 0.105703 -0.950043
vn -0.000000 0.087125 -0.996197
vn -0.293675 0.105703 -0.950043
vn -0.527761 0.152281 -0.835631
vn -0.725249 0.181086 -0.664245
vn -0.907042 0.186164 -0.377648
vn -0.979278 0.185193 -0.081959
vn -0.990989 0.096521 0.092870
vn -0.951960 -0.042423 0.303268
vn -0.768978 -0.124122 0.627110
vn -0.422939 -0.140717 0.895166
vn -0.000000 -0.145535 0.989353
vn 0.422938 -0.140718 0.895166
vn 0.768977 -0.124123 0.627110
vn 0.951960 -0.042424 0.303268
vn 0.990989 0.096521 0.092870
vn 0.979278 0.185193 -0.081958
vn 0.526189 0.629952 -0.571215
vn 0.703134 0.629365 -0.330910
vn 0.371882 0.613527 -0.696626
vn 0.207785 0.570182 -0.794806
vn -0.000000 0.543722 -0.839266
vn -0.207785 0.570182 -0.794807
vn -0.371882 0.613527 -0.696626
vn -0.526189 0.629952 -0.571215
vn -0.703134 0.629365 -0.330911
vn -0.808787 0.583387 -0.074311
vn -0.864067 0.498907 0.066932
vn -0.865818 0.409744 0.287173
vn -0.689519 0.381973 0.615354
vn -0.365546 0.405336 0.837901
vn -0.000000 0.430094 0.902784
vn 0.365547 0.405336 0.837901
vn 0.689519 0.381973 0.615354
vn 0.865818 0.409744 0.287173
vn 0.864067 0.498907 0.066932
vn 0.808787 0.583387 -0.074310
vn 0.321458 0.810878 -0.489020
vn 0.478183 0.827100 -0.295374
vn 0.228967 0.804097 -0.548637
vn 0.146979 0.791749 -0.592901
vn -0.000000 0.775928 -0.630822
vn -0.146979 0.791749 -0.592901
vn -0.228967 0.804097 -0.548637
vn -0.321459 0.810878 -0.489020
vn -0.478183 0.827100 -0.295375
vn -0.592468 0.799841 -0.096103
vn -0.661098 0.750299 0.000998
vn -0.661451 0.718779 0.214101
vn -0.511851 0.687735 0.514810
vn -0.267058 0.660817 0.701428
vn 0.000000 0.657789 0.753202
vn 0.267058 0.660817 0.701427
vn 0.511851 0.687735 0.514810
vn 0.661451 0.718779 0.214101
vn 0.661098 0.750299 0.000998
vn 0.592468 0.799841 -0.096103
vn 0.139555 0.903121 -0.406075
vn 0.220867 0.938708 -0.264659
vn 0.121509 0.882319 -0.454697
vn 0.104202 0.877289 -0.468514
vn 0.000000 0.876391 -0.481601
vn -0.104202 0.877289 -0.468514
vn -0.121509 0.882319 -0.454697
vn -0.139555 0.903121 -0.406075
vn -0.220867 0.938708 -0.264660
vn -0.287231 0.948863 -0.130985
vn -0.318166 0.944127 -0.085993
vn -0.299939 0.953014 0.042445
vn -0.202740 0.940970 0.271058
vn -0.109954 0.900543 0.420633
vn -0.000000 0.880596 0.473868
vn 0.109954 0.900543 0.420633
vn 0.202741 0.940970 0.271058
vn 0.299939 0.953014 0.042446
vn 0.318166 0.944127 -0.085994
vn 0.287231 0.948863 -0.130985
vn 0.069687 0.941047 -0.331019
vn 0.114085 0.966879 -0.228317
vn 0.063844 0.923777 -0.377570
vn 0.066192 0.918586 -0.389640
vn 0.000000 0.917842 -0.396945
vn -0.066192 0.918586 -0.389639
vn -0.063844 0.923777 -0.377570
vn -0.069687 0.941047 -0.331020
vn -0.114084 0.966879 -0.228318
vn -0.149307 0.979194 -0.137431
vn -0.164263 0.980255 -0.110082
vn -0.140288 0.989106 -0.044584
vn -0.058593 0.993792 0.094572
vn -0.007476 0.984478 0.175351
vn -0.000000 0.981372 0.192117
vn 0.007476 0.984478 0.175351
vn 0.058593 0.993792 0.094572
vn 0.140288 0.989106 -0.044584
vn 0.164263 0.980255 -0.110082
vn 0.149307 0.979194 -0.137431
vn 0.000000 -0.999950 0.010010
vn 0.000000 0.983962 -0.178378
s 1
g pSphere1
usemtl initialShadingGroup
f 1/1/1 2/2/2 22/23/3 21/22/4
f 2/2/2 3/3/5 23/24/6 22/23/3
f 3/3/5 4/4/7 24/25/8 23/24/6
f 4/4/7 5/5/9 25/26/10 24/25/8
f 5/5/9 6/6/11 26/27/12 25/26/10
f 6/6/11 7/7/13 27/28/14 26/27/12
f 7/7/13 8/8/15 28/29/16 27/28/14
f 8/8/15 9/9/17 29/30/18 28/29/16
f 9/9/17 10/10/19 30/31/20 29/30/18
f 10/10/19 11/11/21 31/32/22 30/31/20
f 11/11/21 12/12/23 32/33/24 31/32/22
f 12/12/23 13/13/25 33/34/26 32/33/24
f 13/13/25 14/14/27 34/35/28 33/34/26
f 14/14/27 15/15/29 35/36/30 34/35/28
f 15/15/29 16/16/31 36/37/32 35/36/30
f 16/16/31 17/17/33 37/38/34 36/37/32
f 17/17/33 18/18/35 38/39/36 37/38/34
f 18/18/35 19/19/37 39/40/38 38/39/36
f 19/19/37 20/20/39 40/41/40 39/40/38
f 20/20/39 1/21/1 21/42/4 40/41/40
f 21/22/4 22/23/3 42/44/41 41/43/42
f 22/23/3 23/24/6 43/45/43 42/44/41
f 23/24/6 24/25/8 44/46/44 43/45/43
f 24/25/8 25/26/10 45/47/45 44/46/44
f 25/26/10 26/27/12 46/48/46 45/47/45
f 26/27/12 27/28/14 47/49/47 46/48/46
f 27/28/14 28/29/16 48/50/48 47/49/47
f 28/29/16 29/30/18 49/51/49 48/50/48
f 29/30/18 30/31/20 50/52/50 49/51/49
f 30/31/20 31/32/22 51/53/51 50/52/50
f 31/32/22 32/33/24 52/54/52 51/53/51
f 32/33/24 33/34/26 53/55/53 52/54/52
f 33/34/26 34/35/28 54/56/54 53/55/53
f 34/35/28 35/36/30 55/57/55 54/56/54
f 35/36/30 36/37/32 56/58/56 55/57/55
f 36/37/32 37/38/34 57/59/57 56/58/56
f 37/38/34 38/39/36 58/60/58 57/59/57
f 38/39/36 39/40/38 59/61/59 58/60/58
f 39/40/38 40/41/40 60/62/60 59/61/59
f 40/41/40 21/42/4 41/63/42 60/62/60
f 41/43/42 42/44/41 62/65/61 61/64/62
f 42/44/41 43/45/43 63/66/63 62/65/61
f 43/45/43 44/46/44 64/67/64 63/66/63
f 44/46/44 45/47/45 65/68/65 64/67/64
f 45/47/45 46/48/46 66/69/66 65/68/65
f 46/48/46 47/49/47 67/70/67 66/69/66
f 47/49/47 48/50/48 68/71/68 67/70/67
f 48/50/48 49/51/49 69/72/69 68/71/68
f 49/51/49 50/52/50 70/73/70 69/72/69
f 50/52/50 51/53/51 71/74/71 70/73/70
f 51/53/51 52/54/52 72/75/72 71/74/71
f 52/54/52 53/55/53 73/76/73 72/75/72
f 53/55/53 54/56/54 74/77/74 73/76/73
f 54/56/54 55/57/55 75/78/75 74/77/74
f 55/57/55 56/58/56 76/79/76 75/78/75
f 56/58/56 57/59/57 77/80/77 76/79/76
f 57/59/57 58/60/58 78/81/78 77/80/77
f 58/60/58 59/61/59 79/82/79 78/81/78
f 59/61/59 60/62/60 80/83/80 79/82/79
f 60/62/60 41/63/42 61/84/62 80/83/80
f 61/64/62 62/65/61 82/86/81 81/85/82
f 62/65/61 63/66/63 83/87/83 82/86/81
f 63/66/63 64/67/64 84/88/84 83/87/83
f 64/67/64 65/68/65 85/89/85 84/88/84
f 65/68/65 66/69/66 86/90/86 85/89/85
f 66/69/66 67/70/67 87/91/87 86/90/86
f 67/70/67 68/71/68 88/92/88 87/91/87
f 68/71/68 69/72/69 89/93/89 88/92/88
f 69/72/69 70/73/70 90/94/90 89/93/89
f 70/73/70 71/74/71 91/95/91 90/94/90
f 71/74/71 72/75/72 92/96/92 91/95/91
f 72/75/72 73/76/73 93/97/93 92/96/92
f 73/76/73 74/77/74 94/98/94 93/97/93
f 74/77/74 75/78/75 95/99/95 94/98/94
f 75/78/75 76/79/76 96/100/96 95/99/95
f 76/79/76 77/80/77 97/101/97 96/100/96
f 77/80/77 78/81/78 98/102/98 97/101/97
f 78/81/78 79/82/79 99/103/99 98/102/98
f 79/82/79 80/83/80 100/104/100 99/103/99
f 80/83/80 61/84/62 81/105/82 100/104/100
f 81/85/82 82/86/81 102/107/101 101/106/102
f 82/86/81 83/87/83 103/108/103 102/107/101
f 83/87/83 84/88/84 104/109/104 103/108/103
f 84/88/84 85/89/85 105/110/105 104/109/104
f 85/89/85 86/90/86 106/111/106 105/110/105
f 86/90/86 87/91/87 107/112/107 106/111/106
f 87/91/87 88/92/88 108/113/108 107/112/107
f 88/92/88 89/93/89 109/114/109 108/113/108
f 89/93/89 90/94/90 110/115/110 109/114/109
f 90/94/90 91/95/91 111/116/111 110/115/110
f 91/95/91 92/96/92 112/117/112 111/116/111
f 92/96/92 93/97/93 113/118/113 112/117/112
f 93/97/93 94/98/94 114/119/114 113/118/113
f 94/98/94 95/99/95 115/120/115 114/119/114
f 95/99/95 96/100/96 116/121/116 115/120/115
f 96/100/96 97/101/97 117/122/117 116/121/116
f 97/101/97 98/102/98 118/123/118 117/122/117
f 98/102/98 99/103/99 119/124/119 118/123/118
f 99/103/99 100/104/100 120/125/120 119/124/119
f 100/104/100 81/105/82 101/126/102 120/125/120
f 101/106/102 102/107/101 122/128/121 121/127/122
f 102/107/101 103/108/103 123/129/123 122/128/121
f 103/108/103 104/109/104 124/130/124 123/129/123
f 104/109/104 105/110/105 125/131/125 124/130/124
f 105/110/105 106/111/106 126/132/126 125/131/125
f 106/111/106 107/112/107 127/133/127 126/132/126
f 107/112/107 108/113/108 128/134/128 127/133/127
f 108/113/108 109/114/109 129/135/129 128/134/128
f 109/114/109 110/115/110 130/136/130 129/135/129
f 110/115/110 111/116/111 131/137/131 130/136/130
f 111/116/111 112/117/112 132/138/132 131/137/131
f 112/117/112 113/118/113 133/139/133 132/138/132
f 113/118/113 114/119/114 134/140/134 133/139/133
f 114/119/114 115/120/115 135/141/135 134/140/134
f 115/120/115 116/121/116 136/142/136 135/141/135
f 116/121/116 117/122/117 137/143/137 136/142/136
f 117/122/117 118/123/118 138/144/138 137/143/137
f 118/123/118 119/124/119 139/145/139 138/144/138
f 119/124/119 120/125/120 140/146/140 139/145/139
f 120/125/120 101/126/102 121/147/122 140/146/140
f 121/127/122 122/128/121 142/149/141 141/148/142
f 122/128/121 123/129/123 143/150/143 142/149/141
f 123/129/123 124/130/124 144/151/144 143/150/143
f 124/130/124 125/131/125 145/152/145 144/151/144
f 125/131/125 126/132/126 146/153/146 145/152/145
f 126/132/126 127/133/127 147/154/147 146/153/146
f 127/133/127 128/134/128 148/155/148 147/154/147
f 128/134/128 129/135/129 149/156/149 148/155/148
f 129/135/129 130/136/130 150/157/150 149/156/149
f 130/136/130 131/137/131 151/158/151 150/157/150
f 131/137/131 132/138/132 152/159/152 151/158/151
f 132/138/132 133/139/133 153/160/153 152/159/152
f 133/139/133 134/140/134 154/161/154 153/160/153
f 134/140/134 135/141/135 155/162/155 154/161/154
f 135/141/135 136/142/136 156/163/156 155/162/155
f 136/142/136 137/143/137 157/164/157 156/163/156
f 137/143/137 138/144/138 158/165/158 157/164/157
f 138/144/138 139/145/139 159/166/159 158/165/158
f 139/145/139 140/146/140 160/167/160 159/166/159
f 140/146/140 121/147/122 141/168/142 160/167/160
f 2/2/2 1/1/1 161/169/161
f 3/3/5 2/2/2 161/170/161
f 4/4/7 3/3/5 161/171/161
f 5/5/9 4/4/7 161/172/161
f 6/6/11 5/5/9 161/173/161
f 7/7/13 6/6/11 161/174/161
f 8/8/15 7/7/13 161/175/161
f 9/9/17 8/8/15 161/176/161
f 10/10/19 9/9/17 161/177/161
f 11/11/21 10/10/19 161/178/161
f 12/12/23 11/11/21 161/179/161
f 13/13/25 12/12/23 161/180/161
f 14/14/27 13/13/25 161/181/161
f 15/15/29 14/14/27 161/182/161
f 16/16/31 15/15/29 161/183/161
f 17/17/33 16/16/31 161/184/161
f 18/18/35 17/17/33 161/185/161
f 19/19/37 18/18/35 161/186/161
f 20/20/39 19/19/37 161/187/161
f 1/21/1 20/20/39 161/188/161
f 141/148/142 142/149/141 162/189/162
f 142/149/141 143/150/143 162/190/162
f 143/150/143 144/151/144 162/191/162
f 144/151/144 145/152/145 162/192/162
f 145/152/145 146/153/146 162/193/162
f 146/153/146 147/154/147 162/194/162
f 147/154/147 148/155/148 162/195/162
f 148/155/148 149/156/149 162/196/162
f 149/156/149 150/157/150 162/197/162
f 150/157/150 151/158/151 162/198/162
f 151/158/151 152/159/152 162/199/162
f 152/159/152 153/160/153 162/200/162
f 153/160/153 154/161/154 162/201/162
f 154/161/154 155/162/155 162/202/162
f 155/162/155 156/163/156 162/203/162
f 156/163/156 157/164/157 162/204/162
f 157/164/157 158/165/158 162/205/162
f 158/165/158 159/166/159 162/206/162
f 159/166/159 160/167/160 162/207/162
f 160/167/160 141/168/142 162/208/162
