# This file uses centimeters as units for non-parametric coordinates.

mtllib housewall.mtl
g default
v -25.150000 -0.465693 25.000000
v -24.850000 -0.465693 25.000000
v -25.150000 19.534307 25.000000
v -24.850000 19.534307 25.000000
v -25.150000 19.534307 -25.000000
v -24.850000 19.534307 -25.000000
v -25.150000 -0.465693 -25.000000
v -24.850000 -0.465693 -25.000000
vt 0.830609 0.012801
vt 0.910320 0.012801
vt 0.910320 0.092512
vt 0.830609 0.092512
vt 0.910320 0.172224
vt 0.830609 0.172224
vt 0.910320 0.251935
vt 0.830609 0.251935
vt 0.910320 0.331646
vt 0.830609 0.331646
vt 0.990031 0.012801
vt 0.990031 0.092512
vt 0.750897 0.012801
vt 0.750897 0.092512
vn 0.000000 0.000000 1.000000
vn 0.000000 0.000000 1.000000
vn 0.000000 0.000000 1.000000
vn 0.000000 0.000000 1.000000
vn 0.000000 1.000000 0.000000
vn 0.000000 1.000000 0.000000
vn 0.000000 1.000000 0.000000
vn 0.000000 1.000000 0.000000
vn 0.000000 0.000000 -1.000000
vn 0.000000 0.000000 -1.000000
vn 0.000000 0.000000 -1.000000
vn 0.000000 0.000000 -1.000000
vn 0.000000 -1.000000 0.000000
vn 0.000000 -1.000000 0.000000
vn 0.000000 -1.000000 0.000000
vn 0.000000 -1.000000 0.000000
vn 1.000000 0.000000 0.000000
vn 1.000000 0.000000 0.000000
vn 1.000000 0.000000 0.000000
vn 1.000000 0.000000 0.000000
vn -1.000000 0.000000 0.000000
vn -1.000000 0.000000 0.000000
vn -1.000000 0.000000 0.000000
vn -1.000000 0.000000 0.000000
s off
g polySurface70 polySurface61
usemtl lambert2SG
f 1/1/1 2/2/2 4/3/3 3/4/4
f 3/4/5 4/3/6 6/5/7 5/6/8
f 5/6/9 6/5/10 8/7/11 7/8/12
f 7/8/13 8/7/14 2/9/15 1/10/16
f 2/2/17 8/11/18 6/12/19 4/3/20
f 7/13/21 1/1/22 3/4/23 5/14/24
