# This file uses centimeters as units for non-parametric coordinates.

mtllib housefloor.mtl
g default
v -25.000000 -0.465693 25.000000
v -20.000000 -0.465693 25.000000
v -15.000001 -0.465693 25.000000
v -9.999999 -0.465693 25.000000
v -5.000000 -0.465693 25.000000
v 0.000000 -0.465693 25.000000
v 5.000001 -0.465693 25.000000
v 9.999999 -0.465693 25.000000
v 15.000001 -0.465693 25.000000
v 20.000002 -0.465693 25.000000
v 25.000000 -0.465693 25.000000
v -25.000000 -0.465693 20.000000
v -20.000000 -0.465693 20.000000
v -15.000001 -0.465693 20.000000
v -9.999999 -0.465693 20.000000
v -5.000000 -0.465693 20.000000
v 0.000000 -0.465693 20.000000
v 5.000001 -0.465693 20.000000
v 9.999999 -0.465693 20.000000
v 15.000001 -0.465693 20.000000
v 20.000002 -0.465693 20.000000
v 25.000000 -0.465693 20.000000
v -25.000000 -0.465693 15.000001
v -20.000000 -0.465693 15.000001
v -15.000001 -0.465693 15.000001
v -9.999999 -0.465693 15.000001
v -5.000000 -0.465693 15.000001
v 0.000000 -0.465693 15.000001
v 5.000001 -0.465693 15.000001
v 9.999999 -0.465693 15.000001
v 15.000001 -0.465693 15.000001
v 20.000002 -0.465693 15.000001
v 25.000000 -0.465693 15.000001
v -25.000000 -0.465693 9.999999
v -20.000000 -0.465693 9.999999
v -15.000001 -0.465693 9.999999
v -9.999999 -0.465693 9.999999
v -5.000000 -0.465693 9.999999
v 0.000000 -0.465693 9.999999
v 5.000001 -0.465693 9.999999
v 9.999999 -0.465693 9.999999
v 15.000001 -0.465693 9.999999
v 20.000002 -0.465693 9.999999
v 25.000000 -0.465693 9.999999
v -25.000000 -0.465693 5.000000
v -20.000000 -0.465693 5.000000
v -15.000001 -0.465693 5.000000
v -9.999999 -0.465693 5.000000
v -5.000000 -0.465693 5.000000
v 0.000000 -0.465693 5.000000
v 5.000001 -0.465693 5.000000
v 9.999999 -0.465693 5.000000
v 15.000001 -0.465693 5.000000
v 20.000002 -0.465693 5.000000
v 25.000000 -0.465693 5.000000
v -25.000000 -0.465693 0.000000
v -20.000000 -0.465693 0.000000
v -15.000001 -0.465693 0.000000
v -9.999999 -0.465693 0.000000
v -5.000000 -0.465693 0.000000
v 0.000000 -0.465693 0.000000
v 5.000001 -0.465693 0.000000
v 9.999999 -0.465693 0.000000
v 15.000001 -0.465693 0.000000
v 20.000002 -0.465693 0.000000
v 25.000000 -0.465693 0.000000
v -25.000000 -0.465693 -5.000001
v -20.000000 -0.465693 -5.000001
v -15.000001 -0.465693 -5.000001
v -9.999999 -0.465693 -5.000001
v -5.000000 -0.465693 -5.000001
v 0.000000 -0.465693 -5.000001
v 5.000001 -0.465693 -5.000001
v 9.999999 -0.465693 -5.000001
v 15.000001 -0.465693 -5.000001
v 20.000002 -0.465693 -5.000001
v 25.000000 -0.465693 -5.000001
v -25.000000 -0.465693 -9.999999
v -20.000000 -0.465693 -9.999999
v -15.000001 -0.465693 -9.999999
v -9.999999 -0.465693 -9.999999
v -5.000000 -0.465693 -9.999999
v 0.000000 -0.465693 -9.999999
v 5.000001 -0.465693 -9.999999
v 9.999999 -0.465693 -9.999999
v 15.000001 -0.465693 -9.999999
v 20.000002 -0.465693 -9.999999
v 25.000000 -0.465693 -9.999999
v -25.000000 -0.465693 -15.000001
v -20.000000 -0.465693 -15.000001
v -15.000001 -0.465693 -15.000001
v 20.000002 -0.465693 -15.000001
v 25.000000 -0.465693 -15.000001
v -25.000000 -0.465693 -20.000002
v -20.000000 -0.465693 -20.000002
v -15.000001 -0.465693 -20.000002
v -9.999999 -0.465693 -20.000002
v -5.000000 -0.465693 -20.000002
v 0.000000 -0.465693 -20.000002
v 5.000001 -0.465693 -20.000002
v 9.999999 -0.465693 -20.000002
v 15.000001 -0.465693 -20.000002
v 20.000002 -0.465693 -20.000002
v 25.000000 -0.465693 -20.000002
v -25.000000 -0.465693 -25.000000
v -20.000000 -0.465693 -25.000000
v -15.000001 -0.465693 -25.000000
v -9.999999 -0.465693 -25.000000
v -5.000000 -0.465693 -25.000000
v 0.000000 -0.465693 -25.000000
v 5.000001 -0.465693 -25.000000
v 9.999999 -0.465693 -25.000000
v 15.000001 -0.465693 -25.000000
v 20.000002 -0.465693 -25.000000
v 25.000000 -0.465693 -25.000000
vt 0.009275 0.007175
vt 0.035880 0.007175
vt 0.035880 0.033780
vt 0.009275 0.033780
vt 0.062486 0.007175
vt 0.062486 0.033780
vt 0.089091 0.007175
vt 0.089091 0.033780
vt 0.115697 0.007175
vt 0.115697 0.033780
vt 0.142302 0.007175
vt 0.142302 0.033780
vt 0.168908 0.007175
vt 0.168908 0.033780
vt 0.195513 0.007175
vt 0.195513 0.033780
vt 0.222119 0.007175
vt 0.222119 0.033780
vt 0.248724 0.007175
vt 0.248724 0.033780
vt 0.275330 0.007175
vt 0.275330 0.033780
vt 0.035880 0.060386
vt 0.009275 0.060386
vt 0.062486 0.060386
vt 0.089091 0.060386
vt 0.115697 0.060386
vt 0.142302 0.060386
vt 0.168908 0.060386
vt 0.195513 0.060386
vt 0.222119 0.060386
vt 0.248724 0.060386
vt 0.275330 0.060386
vt 0.035880 0.086991
vt 0.009275 0.086991
vt 0.062486 0.086991
vt 0.089091 0.086991
vt 0.115697 0.086991
vt 0.142302 0.086991
vt 0.168908 0.086991
vt 0.195513 0.086991
vt 0.222119 0.086991
vt 0.248724 0.086991
vt 0.275330 0.086991
vt 0.035880 0.113597
vt 0.009275 0.113597
vt 0.062486 0.113597
vt 0.089091 0.113597
vt 0.115697 0.113597
vt 0.142302 0.113597
vt 0.168908 0.113597
vt 0.195513 0.113597
vt 0.222119 0.113597
vt 0.248724 0.113597
vt 0.275330 0.113597
vt 0.035880 0.140202
vt 0.009275 0.140202
vt 0.062486 0.140202
vt 0.089091 0.140202
vt 0.115697 0.140202
vt 0.142302 0.140202
vt 0.168908 0.140202
vt 0.195513 0.140202
vt 0.222119 0.140202
vt 0.248724 0.140202
vt 0.275330 0.140202
vt 0.035880 0.166808
vt 0.009275 0.166808
vt 0.062486 0.166808
vt 0.089091 0.166808
vt 0.115697 0.166808
vt 0.142302 0.166808
vt 0.168908 0.166808
vt 0.195513 0.166808
vt 0.222119 0.166808
vt 0.248724 0.166808
vt 0.275330 0.166808
vt 0.035880 0.193413
vt 0.009275 0.193413
vt 0.062486 0.193413
vt 0.089091 0.193413
vt 0.115697 0.193413
vt 0.142302 0.193413
vt 0.168908 0.193413
vt 0.195513 0.193413
vt 0.222119 0.193413
vt 0.248724 0.193413
vt 0.275330 0.193413
vt 0.035880 0.220019
vt 0.009275 0.220019
vt 0.062486 0.220019
vt 0.275330 0.220019
vt 0.248724 0.220019
vt 0.035880 0.246624
vt 0.009275 0.246624
vt 0.062486 0.246624
vt 0.275330 0.246624
vt 0.248724 0.246624
vt 0.035880 0.273230
vt 0.009275 0.273230
vt 0.062486 0.273230
vt 0.089091 0.246624
vt 0.089091 0.273230
vt 0.115697 0.246624
vt 0.115697 0.273230
vt 0.142302 0.246624
vt 0.142302 0.273230
vt 0.168908 0.246624
vt 0.168908 0.273230
vt 0.195513 0.246624
vt 0.195513 0.273230
vt 0.222119 0.246624
vt 0.222119 0.273230
vt 0.248724 0.273230
vt 0.275330 0.273230
vn 0.000000 1.000000 0.000000
vn 0.000000 1.000000 0.000000
vn 0.000000 1.000000 0.000000
vn 0.000000 1.000000 0.000000
vn 0.000000 1.000000 0.000000
vn 0.000000 1.000000 0.000000
vn 0.000000 1.000000 0.000000
vn 0.000000 1.000000 0.000000
vn 0.000000 1.000000 0.000000
vn 0.000000 1.000000 0.000000
vn 0.000000 1.000000 0.000000
vn 0.000000 1.000000 0.000000
vn 0.000000 1.000000 0.000000
vn 0.000000 1.000000 0.000000
vn 0.000000 1.000000 0.000000
vn 0.000000 1.000000 0.000000
vn 0.000000 1.000000 0.000000
vn 0.000000 1.000000 0.000000
vn 0.000000 1.000000 0.000000
vn 0.000000 1.000000 0.000000
vn 0.000000 1.000000 0.000000
vn 0.000000 1.000000 0.000000
vn 0.000000 1.000000 0.000000
vn 0.000000 1.000000 0.000000
vn 0.000000 1.000000 0.000000
vn 0.000000 1.000000 0.000000
vn 0.000000 1.000000 0.000000
vn 0.000000 1.000000 0.000000
vn 0.000000 1.000000 0.000000
vn 0.000000 1.000000 0.000000
vn 0.000000 1.000000 0.000000
vn 0.000000 1.000000 0.000000
vn 0.000000 1.000000 0.000000
vn 0.000000 1.000000 0.000000
vn 0.000000 1.000000 0.000000
vn 0.000000 1.000000 0.000000
vn 0.000000 1.000000 0.000000
vn 0.000000 1.000000 0.000000
vn 0.000000 1.000000 0.000000
vn 0.000000 1.000000 0.000000
vn 0.000000 1.000000 0.000000
vn 0.000000 1.000000 0.000000
vn 0.000000 1.000000 0.000000
vn 0.000000 1.000000 0.000000
vn 0.000000 1.000000 0.000000
vn 0.000000 1.000000 0.000000
vn 0.000000 1.000000 0.000000
vn 0.000000 1.000000 0.000000
vn 0.000000 1.000000 0.000000
vn 0.000000 1.000000 0.000000
vn 0.000000 1.000000 0.000000
vn 0.000000 1.000000 0.000000
vn 0.000000 1.000000 0.000000
vn 0.000000 1.000000 0.000000
vn 0.000000 1.000000 0.000000
vn 0.000000 1.000000 0.000000
vn 0.000000 1.000000 0.000000
vn 0.000000 1.000000 0.000000
vn 0.000000 1.000000 0.000000
vn 0.000000 1.000000 0.000000
vn 0.000000 1.000000 0.000000
vn 0.000000 1.000000 0.000000
vn 0.000000 1.000000 0.000000
vn 0.000000 1.000000 0.000000
vn 0.000000 1.000000 0.000000
vn 0.000000 1.000000 0.000000
vn 0.000000 1.000000 0.000000
vn 0.000000 1.000000 0.000000
vn 0.000000 1.000000 0.000000
vn 0.000000 1.000000 0.000000
vn 0.000000 1.000000 0.000000
vn 0.000000 1.000000 0.000000
vn 0.000000 1.000000 0.000000
vn 0.000000 1.000000 0.000000
vn 0.000000 1.000000 0.000000
vn 0.000000 1.000000 0.000000
vn 0.000000 1.000000 0.000000
vn 0.000000 1.000000 0.000000
vn 0.000000 1.000000 0.000000
vn 0.000000 1.000000 0.000000
vn 0.000000 1.000000 0.000000
vn 0.000000 1.000000 0.000000
vn 0.000000 1.000000 0.000000
vn 0.000000 1.000000 0.000000
vn 0.000000 1.000000 0.000000
vn 0.000000 1.000000 0.000000
vn 0.000000 1.000000 0.000000
vn 0.000000 1.000000 0.000000
vn 0.000000 1.000000 0.000000
vn 0.000000 1.000000 0.000000
vn 0.000000 1.000000 0.000000
vn 0.000000 1.000000 0.000000
vn 0.000000 1.000000 0.000000
vn 0.000000 1.000000 0.000000
vn 0.000000 1.000000 0.000000
vn 0.000000 1.000000 0.000000
vn 0.000000 1.000000 0.000000
vn 0.000000 1.000000 0.000000
vn 0.000000 1.000000 0.000000
vn 0.000000 1.000000 0.000000
vn 0.000000 1.000000 0.000000
vn 0.000000 1.000000 0.000000
vn 0.000000 1.000000 0.000000
vn 0.000000 1.000000 0.000000
vn 0.000000 1.000000 0.000000
vn 0.000000 1.000000 0.000000
vn 0.000000 1.000000 0.000000
vn 0.000000 1.000000 0.000000
vn 0.000000 1.000000 0.000000
vn 0.000000 1.000000 0.000000
vn 0.000000 1.000000 0.000000
vn 0.000000 1.000000 0.000000
vn 0.000000 1.000000 0.000000
vn 0.000000 1.000000 0.000000
vn 0.000000 1.000000 0.000000
s 1
g polySurface87 polySurface61
usemtl lambert2SG
f 1/1/1 2/2/2 13/3/3 12/4/4
f 2/2/2 3/5/5 14/6/6 13/3/3
f 3/5/5 4/7/7 15/8/8 14/6/6
f 4/7/7 5/9/9 16/10/10 15/8/8
f 5/9/9 6/11/11 17/12/12 16/10/10
f 6/11/11 7/13/13 18/14/14 17/12/12
f 7/13/13 8/15/15 19/16/16 18/14/14
f 8/15/15 9/17/17 20/18/18 19/16/16
f 9/17/17 10/19/19 21/20/20 20/18/18
f 10/19/19 11/21/21 22/22/22 21/20/20
f 12/4/4 13/3/3 24/23/23 23/24/24
f 13/3/3 14/6/6 25/25/25 24/23/23
f 14/6/6 15/8/8 26/26/26 25/25/25
f 15/8/8 16/10/10 27/27/27 26/26/26
f 16/10/10 17/12/12 28/28/28 27/27/27
f 17/12/12 18/14/14 29/29/29 28/28/28
f 18/14/14 19/16/16 30/30/30 29/29/29
f 19/16/16 20/18/18 31/31/31 30/30/30
f 20/18/18 21/20/20 32/32/32 31/31/31
f 21/20/20 22/22/22 33/33/33 32/32/32
f 23/24/24 24/23/23 35/34/34 34/35/35
f 24/23/23 25/25/25 36/36/36 35/34/34
f 25/25/25 26/26/26 37/37/37 36/36/36
f 26/26/26 27/27/27 38/38/38 37/37/37
f 27/27/27 28/28/28 39/39/39 38/38/38
f 28/28/28 29/29/29 40/40/40 39/39/39
f 29/29/29 30/30/30 41/41/41 40/40/40
f 30/30/30 31/31/31 42/42/42 41/41/41
f 31/31/31 32/32/32 43/43/43 42/42/42
f 32/32/32 33/33/33 44/44/44 43/43/43
f 34/35/35 35/34/34 46/45/45 45/46/46
f 35/34/34 36/36/36 47/47/47 46/45/45
f 36/36/36 37/37/37 48/48/48 47/47/47
f 37/37/37 38/38/38 49/49/49 48/48/48
f 38/38/38 39/39/39 50/50/50 49/49/49
f 39/39/39 40/40/40 51/51/51 50/50/50
f 40/40/40 41/41/41 52/52/52 51/51/51
f 41/41/41 42/42/42 53/53/53 52/52/52
f 42/42/42 43/43/43 54/54/54 53/53/53
f 43/43/43 44/44/44 55/55/55 54/54/54
f 45/46/46 46/45/45 57/56/56 56/57/57
f 46/45/45 47/47/47 58/58/58 57/56/56
f 47/47/47 48/48/48 59/59/59 58/58/58
f 48/48/48 49/49/49 60/60/60 59/59/59
f 49/49/49 50/50/50 61/61/61 60/60/60
f 50/50/50 51/51/51 62/62/62 61/61/61
f 51/51/51 52/52/52 63/63/63 62/62/62
f 52/52/52 53/53/53 64/64/64 63/63/63
f 53/53/53 54/54/54 65/65/65 64/64/64
f 54/54/54 55/55/55 66/66/66 65/65/65
f 56/57/57 57/56/56 68/67/67 67/68/68
f 57/56/56 58/58/58 69/69/69 68/67/67
f 58/58/58 59/59/59 70/70/70 69/69/69
f 59/59/59 60/60/60 71/71/71 70/70/70
f 60/60/60 61/61/61 72/72/72 71/71/71
f 61/61/61 62/62/62 73/73/73 72/72/72
f 62/62/62 63/63/63 74/74/74 73/73/73
f 63/63/63 64/64/64 75/75/75 74/74/74
f 64/64/64 65/65/65 76/76/76 75/75/75
f 65/65/65 66/66/66 77/77/77 76/76/76
f 67/68/68 68/67/67 79/78/78 78/79/79
f 68/67/67 69/69/69 80/80/80 79/78/78
f 69/69/69 70/70/70 81/81/81 80/80/80
f 70/70/70 71/71/71 82/82/82 81/81/81
f 71/71/71 72/72/72 83/83/83 82/82/82
f 72/72/72 73/73/73 84/84/84 83/83/83
f 73/73/73 74/74/74 85/85/85 84/84/84
f 74/74/74 75/75/75 86/86/86 85/85/85
f 75/75/75 76/76/76 87/87/87 86/86/86
f 76/76/76 77/77/77 88/88/88 87/87/87
f 78/79/79 79/78/78 90/89/89 89/90/90
f 79/78/78 80/80/80 91/91/91 90/89/89
f 87/87/87 88/88/88 93/92/92 92/93/93
f 89/90/90 90/89/89 95/94/94 94/95/95
f 90/89/89 91/91/91 96/96/96 95/94/94
f 92/93/93 93/92/92 104/97/97 103/98/98
f 94/95/95 95/94/94 106/99/99 105/100/100
f 95/94/94 96/96/96 107/101/101 106/99/99
f 96/96/96 97/102/102 108/103/103 107/101/101
f 97/102/102 98/104/104 109/105/105 108/103/103
f 98/104/104 99/106/106 110/107/107 109/105/105
f 99/106/106 100/108/108 111/109/109 110/107/107
f 100/108/108 101/110/110 112/111/111 111/109/109
f 101/110/110 102/112/112 113/113/113 112/111/111
f 102/112/112 103/98/98 114/114/114 113/113/113
f 103/98/98 104/97/97 115/115/115 114/114/114
