# This file uses centimeters as units for non-parametric coordinates.

mtllib ShelterObject.mtl
g default
v -6.604440 -7.710834 -5.068828
v 6.604451 -7.710834 -5.068828
v -6.604440 9.850061 -5.068828
v 6.604451 9.850061 -5.068828
v -6.604440 9.850061 -9.065603
v 6.604451 9.850061 -9.065603
v -6.604440 -7.710834 -9.065603
v 6.604451 -7.710834 -9.065603
v 6.604450 4.796861 -5.068828
v 6.604450 4.796861 -9.065603
v -6.604440 4.796861 -9.065603
v -6.604440 4.796861 -5.068828
v -3.655609 -7.710834 -5.068829
v -3.655609 -7.710834 -9.065603
v -3.655609 4.796861 -9.065603
v -3.655609 9.850061 -9.065603
v -3.655609 9.850061 -5.068828
v -3.655609 4.796861 -5.068829
v 3.154196 9.850061 -5.068828
v 3.154196 9.850061 -9.065603
v 3.154196 4.796861 -9.065603
v 3.154196 -7.710834 -9.065603
v 3.154196 -7.710834 -5.068828
v 3.154196 4.796861 -5.068828
v -0.160756 -7.710834 -5.068829
v -0.160756 -7.710834 -9.065603
v -0.160756 4.796861 -9.065603
v -0.160756 9.850061 -9.065603
v -0.160756 9.850061 -5.068828
v -0.160756 4.796861 -5.068829
v 1.293490 9.850061 -5.068828
v 1.293490 9.850061 -9.065603
v 1.293490 4.796861 -9.065603
v 1.293490 -7.710834 -9.065603
v 1.293491 -7.710834 -5.068829
v 1.293490 4.796861 -5.068829
v -1.781106 -7.710834 -5.068829
v -1.781107 -7.710834 -9.065603
v -1.781107 4.796861 -9.065603
v -1.781107 9.850061 -9.065603
v -1.781107 9.850061 -5.068828
v -1.781107 4.796862 -5.068829
v -7.929935 13.568230 11.050746
v 7.929948 13.568230 11.050746
v -7.929935 15.100414 10.669390
v 7.929948 15.100414 10.669390
v -7.929935 9.694315 -11.050746
v 7.929948 9.694315 -11.050746
v -7.929935 8.162132 -10.669390
v 7.929948 8.162132 -10.669390
vt 0.375000 0.000000
vt 0.625000 0.000000
vt 0.625000 0.250000
vt 0.375000 0.250000
vt 0.625000 0.500000
vt 0.375000 0.500000
vt 0.625000 0.750000
vt 0.375000 0.750000
vt 0.625000 1.000000
vt 0.375000 1.000000
vt 0.875000 0.000000
vt 0.875000 0.250000
vt 0.125000 0.000000
vt 0.125000 0.250000
vt 0.625000 0.178062
vt 0.625000 0.571938
vt 0.875000 0.178062
vt 0.375000 0.571938
vt 0.125000 0.178062
vt 0.375000 0.178062
vt 0.430812 0.000000
vt 0.430812 1.000000
vt 0.430812 0.750000
vt 0.430812 0.571938
vt 0.430812 0.500000
vt 0.430812 0.250000
vt 0.430812 0.178062
vt 0.559698 0.250000
vt 0.559698 0.500000
vt 0.559698 0.571938
vt 0.559698 0.750000
vt 0.559698 0.000000
vt 0.559698 1.000000
vt 0.559698 0.178062
vt 0.496957 0.000000
vt 0.496957 1.000000
vt 0.496957 0.750000
vt 0.496957 0.571938
vt 0.496957 0.500000
vt 0.496957 0.250000
vt 0.496957 0.178062
vt 0.524481 0.250000
vt 0.524481 0.500000
vt 0.524481 0.571938
vt 0.524481 0.750000
vt 0.524481 0.000000
vt 0.524481 1.000000
vt 0.524481 0.178062
vt 0.466290 0.000000
vt 0.466290 1.000000
vt 0.466290 0.750000
vt 0.466290 0.571938
vt 0.466290 0.500000
vt 0.466290 0.250000
vt 0.466290 0.178062
vt 0.375000 0.000000
vt 0.625000 0.000000
vt 0.625000 0.250000
vt 0.375000 0.250000
vt 0.625000 0.500000
vt 0.375000 0.500000
vt 0.625000 0.750000
vt 0.375000 0.750000
vt 0.625000 1.000000
vt 0.375000 1.000000
vt 0.875000 0.000000
vt 0.875000 0.250000
vt 0.125000 0.000000
vt 0.125000 0.250000
vn 0.000000 -0.000000 1.000000
vn -0.000000 -0.000000 1.000000
vn -0.000000 -0.000000 1.000000
vn 0.000000 -0.000000 1.000000
vn 0.000000 1.000000 0.000000
vn 0.000000 1.000000 0.000000
vn 0.000000 1.000000 0.000000
vn 0.000000 1.000000 0.000000
vn 0.000000 0.000000 -1.000000
vn 0.000000 0.000000 -1.000000
vn 0.000000 0.000000 -1.000000
vn 0.000000 0.000000 -1.000000
vn 0.000000 -1.000000 0.000000
vn 0.000000 -1.000000 0.000000
vn 0.000000 -1.000000 0.000000
vn 0.000000 -1.000000 0.000000
vn 1.000000 -0.000000 0.000000
vn 1.000000 -0.000000 0.000000
vn 1.000000 -0.000000 0.000000
vn 1.000000 -0.000000 0.000000
vn -1.000000 0.000000 0.000000
vn -1.000000 0.000000 0.000000
vn -1.000000 0.000000 0.000000
vn -1.000000 0.000000 0.000000
vn 1.000000 0.000000 0.000000
vn 1.000000 0.000000 0.000000
vn 0.000000 0.000000 -1.000000
vn 0.000000 0.000000 -1.000000
vn -1.000000 0.000000 0.000000
vn -1.000000 0.000000 0.000000
vn -0.000000 0.000000 1.000000
vn -0.000000 -0.000000 1.000000
vn 0.000000 -1.000000 0.000000
vn 0.000000 -1.000000 0.000000
vn 0.000000 -1.000000 0.000000
vn 0.000000 -1.000000 0.000000
vn 0.000000 0.000000 -1.000000
vn 0.000000 0.000000 -1.000000
vn 0.000000 0.000000 -1.000000
vn 0.000000 0.000000 -1.000000
vn 0.000000 0.000000 -1.000000
vn 0.000000 0.000000 -1.000000
vn 0.000000 1.000000 0.000000
vn 0.000000 1.000000 0.000000
vn 0.000000 1.000000 0.000000
vn 0.000000 1.000000 0.000000
vn 0.000000 -0.000000 1.000000
vn 0.000000 -0.000000 1.000000
vn 0.000000 -0.000000 1.000000
vn 0.000000 -0.000000 1.000000
vn 0.000000 0.000000 1.000000
vn 0.000000 0.000000 1.000000
vn 0.000000 1.000000 0.000000
vn 0.000000 1.000000 0.000000
vn 0.000000 1.000000 0.000000
vn 0.000000 1.000000 0.000000
vn 0.000000 0.000000 -1.000000
vn 0.000000 0.000000 -1.000000
vn 0.000000 0.000000 -1.000000
vn 0.000000 0.000000 -1.000000
vn 0.000000 0.000000 -1.000000
vn 0.000000 0.000000 -1.000000
vn 0.000000 -1.000000 0.000000
vn 0.000000 -1.000000 0.000000
vn 0.000000 -1.000000 0.000000
vn 0.000000 -1.000000 0.000000
vn -0.000000 -0.000000 1.000000
vn -0.000000 -0.000000 1.000000
vn 0.000000 0.000000 1.000000
vn 0.000000 0.000000 1.000000
vn 0.000000 0.000000 1.000000
vn 0.000000 0.000000 1.000000
vn 0.000000 -1.000000 0.000000
vn 0.000000 -1.000000 0.000000
vn 0.000000 0.000000 -1.000000
vn 0.000000 0.000000 -1.000000
vn 0.000000 0.000000 -1.000000
vn 0.000000 1.000000 0.000000
vn 0.000000 1.000000 0.000000
vn 0.000000 -0.000000 1.000000
vn 0.000000 -0.000000 1.000000
vn -0.000000 0.000000 1.000000
vn -1.000000 0.000000 0.000000
vn -1.000000 0.000000 0.000000
vn -1.000000 0.000000 0.000000
vn -1.000000 0.000000 0.000000
vn 1.000000 0.000000 0.000000
vn 1.000000 0.000000 0.000000
vn 1.000000 0.000000 0.000000
vn 1.000000 0.000000 0.000000
vn -0.000000 1.000000 -0.000000
vn -0.000000 1.000000 -0.000000
vn -0.000000 1.000000 -0.000000
vn -0.000000 1.000000 -0.000000
vn -1.000000 0.000000 0.000000
vn -1.000000 0.000000 0.000000
vn -1.000000 0.000000 0.000000
vn -1.000000 0.000000 0.000000
vn 1.000000 -0.000000 0.000000
vn 1.000000 -0.000000 0.000000
vn 1.000000 -0.000000 0.000000
vn 1.000000 -0.000000 0.000000
vn 0.000000 1.000000 0.000000
vn 0.000000 1.000000 0.000000
vn 0.000000 1.000000 0.000000
vn 0.000000 1.000000 0.000000
vn 0.000000 0.241528 0.970394
vn 0.000000 0.241528 0.970394
vn 0.000000 0.241528 0.970394
vn 0.000000 0.241528 0.970394
vn 0.000000 0.970394 -0.241529
vn 0.000000 0.970394 -0.241529
vn 0.000000 0.970394 -0.241529
vn 0.000000 0.970394 -0.241529
vn 0.000000 -0.241528 -0.970394
vn 0.000000 -0.241528 -0.970394
vn 0.000000 -0.241528 -0.970394
vn 0.000000 -0.241528 -0.970394
vn 0.000000 -0.970394 0.241529
vn 0.000000 -0.970394 0.241529
vn 0.000000 -0.970394 0.241529
vn 0.000000 -0.970394 0.241529
vn 1.000000 0.000001 0.000000
vn 1.000000 0.000001 0.000000
vn 1.000000 0.000001 0.000000
vn 1.000000 0.000001 0.000000
vn -1.000000 -0.000003 0.000000
vn -1.000000 -0.000003 0.000000
vn -1.000000 -0.000003 0.000000
vn -1.000000 -0.000003 0.000000
s 1
g polySurface4
usemtl initialShadingGroup
f 29/40/1 30/41/2 36/48/3 31/42/4
s 2
f 28/39/5 29/40/6 31/42/7 32/43/8
s 3
f 27/38/9 28/39/10 32/43/11 33/44/12
s 4
f 25/36/13 26/37/14 34/45/15 35/47/16
s 5
f 9/15/17 10/17/18 6/12/19 4/3/20
s 6
f 11/19/21 12/20/22 3/4/23 5/14/24
s 5
f 2/2/25 8/11/26 10/17/18 9/15/17
s 3
f 26/37/27 27/38/9 33/44/12 34/45/28
s 6
f 7/13/29 1/1/30 12/20/22 11/19/21
s 1
f 30/41/2 25/35/31 35/46/32 36/48/3
s 4
f 7/8/33 14/23/34 13/22/35 1/10/36
s 3
f 11/18/37 15/24/38 14/23/39 7/8/40
f 5/6/41 16/25/42 15/24/38 11/18/37
s 9
f 3/4/43 17/26/44 16/25/45 5/6/46
s 1
f 12/20/47 18/27/48 17/26/49 3/4/50
f 1/1/51 13/21/52 18/27/48 12/20/47
s off
f 20/29/53 19/28/54 4/3/55 6/5/56
s 3
f 21/30/57 20/29/58 6/5/59 10/16/60
f 22/31/61 21/30/57 10/16/60 8/7/62
s 4
f 23/33/63 22/31/64 8/7/65 2/9/66
s 1
f 24/34/67 23/32/68 2/2/69 9/15/70
f 19/28/71 24/34/67 9/15/70 4/3/72
s 4
f 37/50/73 38/51/74 26/37/14 25/36/13
s 3
f 38/51/75 39/52/76 27/38/9 26/37/27
f 39/52/76 40/53/77 28/39/10 27/38/9
s 2
f 40/53/78 41/54/79 29/40/6 28/39/5
s 1
f 41/54/80 42/55/81 30/41/2 29/40/1
f 42/55/81 37/49/82 25/35/31 30/41/2
s 12
f 32/43/8 31/42/7 19/28/54 20/29/53
s 3
f 34/45/28 33/44/12 21/30/57 22/31/61
s 4
f 35/47/16 34/45/15 22/31/64 23/33/63
s 1
f 36/48/3 35/46/32 23/32/68 24/34/67
s 4
f 13/22/35 14/23/34 38/51/74 37/50/73
s 3
f 14/23/39 15/24/38 39/52/76 38/51/75
s off
f 16/25/45 17/26/44 41/54/79 40/53/78
s 1
f 18/27/48 13/21/52 37/49/82 42/55/81
s 2
f 40/53/83 39/52/84 42/55/85 41/54/86
s 9
f 15/24/87 16/25/88 17/26/89 18/27/90
s off
f 18/27/91 42/55/92 39/52/93 15/24/94
s 12
f 20/29/95 21/30/96 24/34/97 19/28/98
s off
f 33/44/99 32/43/100 31/42/101 36/48/102
f 21/30/103 33/44/104 36/48/105 24/34/106
f 43/56/107 44/57/108 46/58/109 45/59/110
f 45/59/111 46/58/112 48/60/113 47/61/114
f 47/61/115 48/60/116 50/62/117 49/63/118
f 49/63/119 50/62/120 44/64/121 43/65/122
f 44/57/123 50/66/124 48/67/125 46/58/126
f 49/68/127 43/56/128 45/59/129 47/69/130
