# This file uses centimeters as units for non-parametric coordinates.

mtllib lighttop.mtl
g default
v -0.428150 1.518841 -0.153274
v 0.153274 1.518841 0.428150
v -0.428150 4.245006 -0.153274
v 0.153274 4.245006 0.428150
v -0.153274 4.245006 -0.428150
v 0.428150 4.245006 0.153274
v -0.153274 1.518841 -0.428150
v 0.428150 1.518841 0.153274
vt 0.110311 0.562226
vt 0.215968 0.562226
vt 0.110311 0.667883
vt 0.215968 0.667883
vt 0.110311 0.773541
vt 0.215968 0.773541
vt 0.110311 0.879198
vt 0.215968 0.879198
vt 0.110311 0.984856
vt 0.215968 0.984856
vt 0.321626 0.562226
vt 0.321626 0.667883
vt 0.004653 0.562226
vt 0.004653 0.667883
vn -0.707107 0.000000 0.707107
vn -0.707107 0.000000 0.707107
vn -0.707107 0.000000 0.707107
vn -0.707107 0.000000 0.707107
vn 0.000000 1.000000 0.000000
vn 0.000000 1.000000 0.000000
vn 0.000000 1.000000 0.000000
vn 0.000000 1.000000 0.000000
vn 0.707107 0.000000 -0.707107
vn 0.707107 0.000000 -0.707107
vn 0.707107 0.000000 -0.707107
vn 0.707107 0.000000 -0.707107
vn 0.000000 -1.000000 0.000000
vn 0.000000 -1.000000 0.000000
vn 0.000000 -1.000000 0.000000
vn 0.000000 -1.000000 0.000000
vn 0.707107 0.000000 0.707107
vn 0.707107 0.000000 0.707107
vn 0.707107 0.000000 0.707107
vn 0.707107 0.000000 0.707107
vn -0.707107 0.000000 -0.707107
vn -0.707107 0.000000 -0.707107
vn -0.707107 0.000000 -0.707107
vn -0.707107 0.000000 -0.707107
s 1
g pCube2
usemtl lambert2SG
f 1/1/1 2/2/2 3/3/3
f 3/3/3 2/2/2 4/4/4
s 2
f 3/3/5 4/4/6 5/5/7
f 5/5/7 4/4/6 6/6/8
s 3
f 5/5/9 6/6/10 7/7/11
f 7/7/11 6/6/10 8/8/12
s 4
f 7/7/13 8/8/14 1/9/15
f 1/9/15 8/8/14 2/10/16
s 5
f 2/2/17 8/11/18 4/4/19
f 4/4/19 8/11/18 6/12/20
s 6
f 7/13/21 1/1/22 5/14/23
f 5/14/23 1/1/22 3/3/24
