# This file uses centimeters as units for non-parametric coordinates.

mtllib M_HealthBlack.mtl
g default
v -0.996504 -0.525026 0.268819
v 1.202700 -0.525026 0.268819
v -0.996504 0.474974 0.268819
v 1.202700 0.474974 0.268819
v -0.996504 0.474974 -0.035040
v 1.202700 0.474974 -0.035040
v -0.996504 -0.525026 -0.035040
v 1.202700 -0.525026 -0.035040
vt 0.720748 0.296191
vt 0.828334 0.296191
vt 0.720748 0.403777
vt 0.828334 0.403777
vt 0.720748 0.511362
vt 0.828334 0.511362
vt 0.720748 0.618948
vt 0.828334 0.618948
vt 0.720748 0.726534
vt 0.828334 0.726534
vt 0.935920 0.296191
vt 0.935920 0.403777
vt 0.613163 0.296191
vt 0.613163 0.403777
vn 0.000000 0.000000 1.000000
vn 0.000000 0.000000 1.000000
vn 0.000000 0.000000 1.000000
vn 0.000000 0.000000 1.000000
vn 0.000000 1.000000 0.000000
vn 0.000000 1.000000 0.000000
vn 0.000000 1.000000 0.000000
vn 0.000000 1.000000 0.000000
vn 0.000000 0.000000 -1.000000
vn 0.000000 0.000000 -1.000000
vn 0.000000 0.000000 -1.000000
vn 0.000000 0.000000 -1.000000
vn 0.000000 -1.000000 0.000000
vn 0.000000 -1.000000 0.000000
vn 0.000000 -1.000000 0.000000
vn 0.000000 -1.000000 0.000000
vn 1.000000 0.000000 0.000000
vn 1.000000 0.000000 0.000000
vn 1.000000 0.000000 0.000000
vn 1.000000 0.000000 0.000000
vn -1.000000 0.000000 0.000000
vn -1.000000 0.000000 0.000000
vn -1.000000 0.000000 0.000000
vn -1.000000 0.000000 0.000000
s off
g pasted__pCube2 group1
usemtl blinn1SG
f 1/1/1 2/2/2 4/4/3 3/3/4
f 3/3/5 4/4/6 6/6/7 5/5/8
f 5/5/9 6/6/10 8/8/11 7/7/12
f 7/7/13 8/8/14 2/10/15 1/9/16
f 2/2/17 8/11/18 6/12/19 4/4/20
f 7/13/21 1/1/22 3/3/23 5/14/24
