# This file uses centimeters as units for non-parametric coordinates.

mtllib Mutant_Projectile.mtl
g default
v 0.559017 -0.809017 -0.181636
v 0.475529 -0.809017 -0.345492
v 0.345492 -0.809017 -0.475529
v 0.181636 -0.809017 -0.559017
v 0.000000 -0.809017 -0.587786
v -0.181636 -0.809017 -0.559017
v -0.345492 -0.809017 -0.475528
v -0.475528 -0.809017 -0.345492
v -0.559017 -0.809017 -0.181636
v -0.587785 -0.809017 0.000000
v -0.559017 -0.809017 0.181636
v -0.475528 -0.809017 0.345492
v -0.345492 -0.809017 0.475528
v -0.181636 -0.809017 0.559017
v -0.000000 -0.809017 0.587785
v 0.181636 -0.809017 0.559017
v 0.345491 -0.809017 0.475528
v 0.475528 -0.809017 0.345492
v 0.559017 -0.809017 0.181636
v 0.587785 -0.809017 0.000000
v 0.769421 -0.587785 -0.250000
v 0.654509 -0.587785 -0.475529
v 0.475529 -0.587785 -0.654509
v 0.250000 -0.587785 -0.769421
v 0.000000 -0.587785 -0.809017
v -0.250000 -0.587785 -0.769421
v -0.475528 -0.587785 -0.654509
v -0.654509 -0.587785 -0.475528
v -0.769421 -0.587785 -0.250000
v -0.809017 -0.587785 0.000000
v -0.769421 -0.587785 0.250000
v -0.654509 -0.587785 0.475528
v -0.475528 -0.587785 0.654509
v -0.250000 -0.587785 0.769421
v -0.000000 -0.587785 0.809017
v 0.250000 -0.587785 0.769421
v 0.475528 -0.587785 0.654509
v 0.654509 -0.587785 0.475528
v 0.769421 -0.587785 0.250000
v 0.809017 -0.587785 0.000000
v 0.951057 0.000000 -0.309017
v 0.809018 0.000000 -0.587786
v 0.587786 0.000000 -0.809017
v 0.309017 0.000000 -0.951057
v 0.000000 0.000000 -1.000000
v -0.309017 0.000000 -0.951057
v -0.587785 0.000000 -0.809017
v -0.809017 0.000000 -0.587785
v -0.951057 0.000000 -0.309017
v -1.000000 0.000000 0.000000
v -0.951057 0.000000 0.309017
v -0.809017 0.000000 0.587785
v -0.587785 0.000000 0.809017
v -0.309017 0.000000 0.951057
v -0.000000 0.000000 1.000000
v 0.309017 0.000000 0.951057
v 0.587785 0.000000 0.809017
v 0.809017 0.000000 0.587785
v 0.951057 0.000000 0.309017
v 1.000000 0.000000 0.000000
v 0.769421 0.587785 -0.250000
v 0.654509 0.587785 -0.475529
v 0.475529 0.587785 -0.654509
v 0.250000 0.587785 -0.769421
v 0.000000 0.587785 -0.809017
v -0.250000 0.587785 -0.769421
v -0.475528 0.587785 -0.654509
v -0.654509 0.587785 -0.475528
v -0.769421 0.587785 -0.250000
v -0.809017 0.587785 0.000000
v -0.769421 0.587785 0.250000
v -0.654509 0.587785 0.475528
v -0.475528 0.587785 0.654509
v -0.250000 0.587785 0.769421
v -0.000000 0.587785 0.809017
v 0.250000 0.587785 0.769421
v 0.475528 0.587785 0.654509
v 0.654509 0.587785 0.475528
v 0.769421 0.587785 0.250000
v 0.809017 0.587785 0.000000
v 0.293893 0.951057 -0.095492
v 0.250000 0.951057 -0.181636
v 0.181636 0.951057 -0.250000
v 0.095492 0.951057 -0.293893
v 0.000000 0.951057 -0.309017
v -0.095492 0.951057 -0.293893
v -0.181636 0.951057 -0.250000
v -0.250000 0.951057 -0.181636
v -0.293893 0.951057 -0.095492
v -0.309017 0.951057 0.000000
v -0.293893 0.951057 0.095492
v -0.250000 0.951057 0.181636
v -0.181636 0.951057 0.250000
v -0.095492 0.951057 0.293893
v -0.000000 0.951057 0.309017
v 0.095491 0.951057 0.293893
v 0.181636 0.951057 0.250000
v 0.250000 0.951057 0.181636
v 0.293893 0.951057 0.095492
v 0.309017 0.951057 0.000000
v 0.000000 -1.000000 0.000000
v 0.000000 1.000000 0.000000
vt 0.544317 0.289335
vt 0.585321 0.289335
vt 0.605732 0.396203
vt 0.555047 0.396203
vt 0.531868 0.248237
vt 0.561660 0.240647
vt 0.629971 0.260758
vt 0.645958 0.396203
vt 0.585366 0.502382
vt 0.544317 0.503071
vt 0.498863 0.289335
vt 0.498863 0.396203
vt 0.585302 0.228825
vt 0.498844 0.250852
vt 0.630034 0.518653
vt 0.531932 0.572179
vt 0.516269 0.568189
vt 0.498863 0.503071
vt 0.453409 0.289335
vt 0.442679 0.396203
vt 0.465820 0.248237
vt 0.498907 0.566814
vt 0.453409 0.503071
vt 0.412405 0.289335
vt 0.391995 0.396203
vt 0.436028 0.240647
vt 0.481546 0.568189
vt 0.412449 0.502382
vt 0.367720 0.260758
vt 0.351773 0.396201
vt 0.412386 0.228825
vt 0.465883 0.572179
vt 0.367783 0.518652
vt 0.585362 0.951481
vt 0.544358 0.951481
vt 0.555088 0.844612
vt 0.605772 0.844612
vt 0.561720 0.991704
vt 0.531928 0.991704
vt 0.498904 0.951481
vt 0.498904 0.844612
vt 0.544358 0.737744
vt 0.585386 0.738718
vt 0.617904 0.951481
vt 0.645996 0.844612
vt 0.498904 0.991704
vt 0.585362 0.991704
vt 0.453450 0.951481
vt 0.442720 0.844612
vt 0.498904 0.737744
vt 0.516290 0.672911
vt 0.531952 0.668921
vt 0.617928 0.722448
vt 0.465880 0.991704
vt 0.412446 0.951481
vt 0.392036 0.844612
vt 0.453450 0.737744
vt 0.498928 0.674286
vt 0.436088 0.991704
vt 0.379904 0.951481
vt 0.351812 0.844612
vt 0.412470 0.738718
vt 0.481566 0.672911
vt 0.412446 0.991704
vt 0.379928 0.722448
vt 0.465904 0.668921
vt 0.544406 0.587669
vt 0.673110 0.539155
vt 0.552386 0.603331
vt 0.498952 0.620693
vt 0.646043 0.620693
vt 0.555136 0.620693
vt 0.638844 0.666147
vt 0.552386 0.638055
vt 0.544406 0.653717
vt 0.453498 0.587669
vt 0.445517 0.603331
vt 0.324710 0.539154
vt 0.442768 0.620693
vt 0.351860 0.620693
vt 0.445517 0.638055
vt 0.359059 0.666147
vt 0.453498 0.653717
vt 0.498825 0.145724
vt 0.600463 0.178748
vt 0.673047 0.240256
vt 0.605693 0.145724
vt 0.645917 0.145724
vt 0.600463 0.112700
vt 0.397187 0.178748
vt 0.638718 0.100270
vt 0.585283 0.082908
vt 0.324646 0.240255
vt 0.391957 0.145724
vt 0.617825 0.059266
vt 0.561641 0.059266
vt 0.351733 0.145724
vt 0.397187 0.112700
vt 0.531849 0.044086
vt 0.358932 0.100270
vt 0.412367 0.082908
vt 0.498825 0.038855
vt 0.379825 0.059266
vt 0.436009 0.059266
vt 0.465801 0.044086
vt 0.696646 0.396203
vt 0.752830 0.289334
vt 0.752830 0.396203
vt 0.798284 0.289334
vt 0.809014 0.396203
vt 0.752830 0.503071
vt 0.839288 0.289334
vt 0.859698 0.396203
vt 0.798284 0.503071
vt 0.839288 0.503071
vt 0.158448 0.289332
vt 0.199453 0.289332
vt 0.188723 0.396200
vt 0.138038 0.396200
vt 0.244907 0.289332
vt 0.244907 0.396200
vt 0.199453 0.503068
vt 0.158448 0.503068
vt 0.301091 0.396200
vt 0.244907 0.503068
vn 0.530459 -0.830004 -0.172356
vn 0.451236 -0.830004 -0.327842
vn 0.733560 -0.421711 -0.532963
vn 0.862352 -0.421711 -0.280194
vn 0.327842 -0.830004 -0.451235
vn 0.532963 -0.421711 -0.733561
vn 0.172356 -0.830004 -0.530459
vn 0.280195 -0.421711 -0.862352
vn -0.000000 -0.830004 -0.557758
vn 0.000000 -0.421711 -0.906731
vn -0.172357 -0.830004 -0.530459
vn -0.280195 -0.421711 -0.862352
vn -0.327842 -0.830004 -0.451235
vn -0.532963 -0.421711 -0.733560
vn -0.451236 -0.830004 -0.327842
vn -0.733561 -0.421710 -0.532963
vn -0.530459 -0.830004 -0.172357
vn -0.862352 -0.421710 -0.280195
vn -0.557758 -0.830004 0.000000
vn -0.906731 -0.421710 0.000000
vn -0.530459 -0.830004 0.172357
vn -0.862352 -0.421711 0.280195
vn -0.451236 -0.830004 0.327842
vn -0.733560 -0.421711 0.532963
vn -0.327842 -0.830004 0.451236
vn -0.532963 -0.421711 0.733560
vn -0.172357 -0.830004 0.530459
vn -0.280195 -0.421710 0.862352
vn 0.000000 -0.830004 0.557758
vn 0.000000 -0.421710 0.906731
vn 0.172357 -0.830004 0.530459
vn 0.280195 -0.421710 0.862352
vn 0.327842 -0.830004 0.451236
vn 0.532963 -0.421710 0.733560
vn 0.451236 -0.830004 0.327842
vn 0.733560 -0.421710 0.532963
vn 0.530459 -0.830004 0.172357
vn 0.862352 -0.421710 0.280195
vn 0.557758 -0.830004 0.000000
vn 0.906731 -0.421711 0.000001
vn 0.809017 -0.000000 -0.587785
vn 0.951057 -0.000000 -0.309016
vn 0.587785 -0.000000 -0.809017
vn 0.309017 0.000000 -0.951057
vn 0.000000 -0.000000 -1.000000
vn -0.309017 0.000000 -0.951056
vn -0.587786 0.000000 -0.809017
vn -0.809017 -0.000000 -0.587785
vn -0.951057 0.000000 -0.309017
vn -1.000000 -0.000000 0.000000
vn -0.951057 -0.000000 0.309017
vn -0.809017 -0.000000 0.587785
vn -0.587785 -0.000000 0.809017
vn -0.309017 0.000000 0.951057
vn 0.000000 -0.000000 1.000000
vn 0.309017 0.000000 0.951057
vn 0.587785 0.000000 0.809017
vn 0.809017 0.000000 0.587785
vn 0.951057 0.000000 0.309017
vn 1.000000 0.000000 0.000001
vn 0.696149 0.509471 -0.505782
vn 0.818373 0.509471 -0.265904
vn 0.505782 0.509472 -0.696149
vn 0.265905 0.509471 -0.818372
vn -0.000000 0.509471 -0.860488
vn -0.265906 0.509471 -0.818372
vn -0.505782 0.509471 -0.696149
vn -0.696149 0.509471 -0.505782
vn -0.818372 0.509471 -0.265905
vn -0.860488 0.509471 0.000000
vn -0.818373 0.509471 0.265905
vn -0.696149 0.509471 0.505782
vn -0.505782 0.509471 0.696149
vn -0.265905 0.509471 0.818373
vn 0.000000 0.509471 0.860488
vn 0.265905 0.509471 0.818372
vn 0.505782 0.509471 0.696149
vn 0.696149 0.509471 0.505782
vn 0.818373 0.509471 0.265905
vn 0.860488 0.509471 0.000001
vn 0.443613 0.836258 -0.322304
vn 0.521499 0.836258 -0.169445
vn 0.322304 0.836258 -0.443613
vn 0.169445 0.836258 -0.521499
vn -0.000000 0.836258 -0.548336
vn -0.169445 0.836258 -0.521499
vn -0.322304 0.836258 -0.443613
vn -0.443614 0.836258 -0.322304
vn -0.521499 0.836258 -0.169445
vn -0.548337 0.836258 0.000000
vn -0.521499 0.836258 0.169445
vn -0.443614 0.836258 0.322304
vn -0.322304 0.836258 0.443614
vn -0.169445 0.836258 0.521499
vn 0.000000 0.836258 0.548337
vn 0.169445 0.836258 0.521499
vn 0.322304 0.836258 0.443614
vn 0.443614 0.836258 0.322304
vn 0.521499 0.836258 0.169445
vn 0.548337 0.836258 0.000000
vn -0.000000 -1.000000 0.000000
vn -0.000000 1.000000 -0.000000
s 1
g pSphere1
usemtl blinn1SG
f 1/5/1 2/6/2 22/2/3 21/1/4
f 2/6/2 3/13/5 23/7/6 22/2/3
f 3/13/5 4/85/7 24/86/8 23/7/6
f 4/85/7 5/87/9 25/88/10 24/86/8
f 5/87/9 6/89/11 26/91/12 25/88/10
f 6/89/11 7/92/13 27/95/14 26/91/12
f 7/47/13 8/38/15 28/34/16 27/44/14
f 8/38/15 9/39/17 29/35/18 28/34/16
f 9/39/17 10/46/19 30/40/20 29/35/18
f 10/46/19 11/54/21 31/48/22 30/40/20
f 11/54/21 12/59/23 32/55/24 31/48/22
f 12/59/23 13/64/25 33/60/26 32/55/24
f 13/101/25 14/98/27 34/100/28 33/103/26
f 14/98/27 15/94/29 35/97/30 34/100/28
f 15/94/29 16/90/31 36/93/32 35/97/30
f 16/90/31 17/31/33 37/29/34 36/93/32
f 17/31/33 18/26/35 38/24/36 37/29/34
f 18/26/35 19/21/37 39/19/38 38/24/36
f 19/21/37 20/14/39 40/11/40 39/19/38
f 20/14/39 1/5/1 21/1/4 40/11/40
f 21/1/4 22/2/3 42/3/41 41/4/42
f 22/2/3 23/7/6 43/8/43 42/3/41
f 23/7/6 24/86/8 44/106/44 43/8/43
f 24/86/8 25/107/10 45/108/45 44/106/44
f 25/107/10 26/109/12 46/110/46 45/108/45
f 26/109/12 27/112/14 47/113/47 46/110/46
f 27/44/14 28/34/16 48/37/48 47/45/47
f 28/34/16 29/35/18 49/36/49 48/37/48
f 29/35/18 30/40/20 50/41/50 49/36/49
f 30/40/20 31/48/22 51/49/51 50/41/50
f 31/48/22 32/55/24 52/56/52 51/49/51
f 32/55/24 33/60/26 53/61/53 52/56/52
f 33/116/26 34/117/28 54/118/54 53/119/53
f 34/117/28 35/120/30 55/121/55 54/118/54
f 35/120/30 36/93/32 56/124/56 55/121/55
f 36/93/32 37/29/34 57/30/57 56/124/56
f 37/29/34 38/24/36 58/25/58 57/30/57
f 38/24/36 39/19/38 59/20/59 58/25/58
f 39/19/38 40/11/40 60/12/60 59/20/59
f 40/11/40 21/1/4 41/4/42 60/12/60
f 41/4/42 42/3/41 62/9/61 61/10/62
f 42/3/41 43/8/43 63/15/63 62/9/61
f 43/8/43 44/106/44 64/68/64 63/15/63
f 44/106/44 45/108/45 65/111/65 64/68/64
f 45/108/45 46/110/46 66/114/66 65/111/65
f 46/110/46 47/113/47 67/115/67 66/114/66
f 47/45/47 48/37/48 68/43/68 67/53/67
f 48/37/48 49/36/49 69/42/69 68/43/68
f 49/36/49 50/41/50 70/50/70 69/42/69
f 50/41/50 51/49/51 71/57/71 70/50/70
f 51/49/51 52/56/52 72/62/72 71/57/71
f 52/56/52 53/61/53 73/65/73 72/62/72
f 53/119/53 54/118/54 74/122/74 73/123/73
f 54/118/54 55/121/55 75/125/75 74/122/74
f 55/121/55 56/124/56 76/78/76 75/125/75
f 56/124/56 57/30/57 77/33/77 76/78/76
f 57/30/57 58/25/58 78/28/78 77/33/77
f 58/25/58 59/20/59 79/23/79 78/28/78
f 59/20/59 60/12/60 80/18/80 79/23/79
f 60/12/60 41/4/42 61/10/62 80/18/80
f 61/10/62 62/9/61 82/16/81 81/17/82
f 62/9/61 63/15/63 83/67/83 82/16/81
f 63/15/63 64/68/64 84/69/84 83/67/83
f 64/68/64 65/71/65 85/72/85 84/69/84
f 65/71/65 66/73/66 86/74/86 85/72/85
f 66/73/66 67/53/67 87/75/87 86/74/86
f 67/53/67 68/43/68 88/52/88 87/75/87
f 68/43/68 69/42/69 89/51/89 88/52/88
f 69/42/69 70/50/70 90/58/90 89/51/89
f 70/50/70 71/57/71 91/63/91 90/58/90
f 71/57/71 72/62/72 92/66/92 91/63/91
f 72/62/72 73/65/73 93/83/93 92/66/92
f 73/65/73 74/82/74 94/81/94 93/83/93
f 74/82/74 75/80/75 95/79/95 94/81/94
f 75/80/75 76/78/76 96/77/96 95/79/95
f 76/78/76 77/33/77 97/76/97 96/77/96
f 77/33/77 78/28/78 98/32/98 97/76/97
f 78/28/78 79/23/79 99/27/99 98/32/98
f 79/23/79 80/18/80 100/22/100 99/27/99
f 80/18/80 61/10/62 81/17/82 100/22/100
f 2/6/2 1/5/1 101/84/101
f 3/13/5 2/6/2 101/84/101
f 4/85/7 3/13/5 101/84/101
f 5/87/9 4/85/7 101/84/101
f 6/89/11 5/87/9 101/84/101
f 7/92/13 6/89/11 101/84/101
f 8/96/15 7/92/13 101/84/101
f 9/99/17 8/96/15 101/84/101
f 10/102/19 9/99/17 101/84/101
f 11/105/21 10/102/19 101/84/101
f 12/104/23 11/105/21 101/84/101
f 13/101/25 12/104/23 101/84/101
f 14/98/27 13/101/25 101/84/101
f 15/94/29 14/98/27 101/84/101
f 16/90/31 15/94/29 101/84/101
f 17/31/33 16/90/31 101/84/101
f 18/26/35 17/31/33 101/84/101
f 19/21/37 18/26/35 101/84/101
f 20/14/39 19/21/37 101/84/101
f 1/5/1 20/14/39 101/84/101
f 81/17/82 82/16/81 102/70/102
f 82/16/81 83/67/83 102/70/102
f 83/67/83 84/69/84 102/70/102
f 84/69/84 85/72/85 102/70/102
f 85/72/85 86/74/86 102/70/102
f 86/74/86 87/75/87 102/70/102
f 87/75/87 88/52/88 102/70/102
f 88/52/88 89/51/89 102/70/102
f 89/51/89 90/58/90 102/70/102
f 90/58/90 91/63/91 102/70/102
f 91/63/91 92/66/92 102/70/102
f 92/66/92 93/83/93 102/70/102
f 93/83/93 94/81/94 102/70/102
f 94/81/94 95/79/95 102/70/102
f 95/79/95 96/77/96 102/70/102
f 96/77/96 97/76/97 102/70/102
f 97/76/97 98/32/98 102/70/102
f 98/32/98 99/27/99 102/70/102
f 99/27/99 100/22/100 102/70/102
f 100/22/100 81/17/82 102/70/102
