# This file uses centimeters as units for non-parametric coordinates.

mtllib tree.mtl
g default
v 2.397195 9.797313 -2.845886
v 2.046546 9.780502 -3.038898
v 0.201271 9.186540 -1.903811
v 3.731534 10.487195 -3.106726
v -1.573686 9.174416 -5.296969
v -2.908768 7.456320 -5.331901
v 4.656638 11.101609 -0.821631
v 5.754833 11.514918 -2.795313
v 5.229065 11.666496 -3.417083
v 1.821179 11.481248 -6.713850
v -6.443918 9.669476 -5.119882
v -0.858332 8.725545 4.721267
v 6.045307 13.000031 -3.751364
v -5.144557 8.527808 -1.003246
v 3.721897 11.881592 0.937109
v -2.527059 13.601737 -7.880654
v -9.763165 10.018628 -3.102673
v -7.412293 8.448156 3.523353
v -6.277414 9.395623 3.790412
v -0.861296 9.462297 6.268160
v 2.836070 11.810359 5.499968
v 6.486710 16.045261 -4.722696
v 6.604140 14.755842 -4.426459
v 4.115699 15.489899 -3.744293
v -8.782685 11.848839 -4.590190
v -9.016201 10.374730 0.416632
v -2.413362 12.643547 5.508490
v 0.985655 12.013895 7.172401
v 7.873939 17.828970 -2.983287
v 2.736772 15.397500 -3.535360
v -6.652246 15.081681 -2.466092
v -6.201848 14.763241 2.687044
v -0.143986 15.254351 5.493821
v 7.201609 18.951417 -1.506160
v 4.550239 15.933365 -1.951271
v -0.930062 15.176801 -4.657876
v -8.008515 14.532337 -1.326304
v -3.668469 14.375831 0.655384
v 4.101820 18.444277 -2.965811
v 0.884172 15.860868 -2.102893
v 1.103431 15.577893 -3.854823
v -0.026495 15.298326 -4.058084
v -2.751948 15.471817 -3.208248
v -3.186739 15.069434 -2.958886
v -1.692174 15.677772 -1.780526
v 0.529403 0.870696 2.017200
v -0.345082 2.231343 1.384064
v -0.887554 5.463138 1.270646
v 0.954227 10.803473 1.484728
v 0.134464 10.396217 1.293637
v -0.495248 10.363649 1.141502
v 0.271893 10.704289 1.507484
v 0.588596 10.853330 1.624321
v 1.266714 9.385578 0.520395
v -0.771467 10.312633 0.529874
v -0.201159 10.369489 1.126144
v 1.297677 9.054642 -0.164664
v -0.176222 11.562562 -0.316597
v 1.376849 9.942916 -1.070690
v -1.082713 10.368973 -0.328056
v 0.370575 10.772223 -1.236146
v 1.032643 8.878959 -1.244871
v -0.247121 11.606192 -1.092515
v 0.595792 9.194245 -1.235636
v -1.134158 10.565863 -1.058911
v -0.559389 11.429683 -1.019419
v 0.650388 8.659478 -1.417309
v -1.195455 6.244252 -1.753778
v 0.311287 6.562163 -1.731251
v -4.293380 8.365752 -1.215829
v 0.914334 7.958389 -1.416862
v -4.897081 8.190191 -1.480704
v -0.767729 5.489310 -2.202850
v 1.517829 7.005077 -1.313088
v -4.132843 6.789084 -1.507476
v 0.826086 5.458499 -1.126593
v -1.649624 4.793181 -1.271876
v 1.086197 3.621597 -1.100192
v -1.858115 2.533304 -1.738090
v 0.378880 0.111979 -1.085102
v 1.818502 1.382650 -1.108626
v -3.190562 0.627327 -2.150378
v -3.064167 -0.325254 -2.655515
v 1.327805 -0.113004 -1.570542
v 2.004212 0.501143 -2.885915
v -3.802234 -0.250507 -2.845371
v -3.720366 -0.341073 -2.847655
v 1.861961 -0.335529 -2.948058
v 2.107007 -0.380489 -3.100180
v -3.899698 -0.252444 -2.569478
v -2.725164 -0.468468 -1.667367
v 2.798658 -0.160209 -0.473207
v -0.762134 -0.125007 -1.358445
v 3.481027 -0.195946 0.133715
v -1.249250 0.040810 -0.443123
v 3.508305 -0.230719 0.386409
v -1.412193 -0.464380 0.794854
v 1.458809 0.114285 0.676699
v -1.115184 -0.017024 1.511829
v -0.717800 -0.129571 1.952285
v -0.507862 -0.374690 4.347731
v 0.096232 -0.307241 4.718771
v 0.436308 0.057617 4.618423
v 1.066860 -0.263737 2.240029
v 1.188778 0.033643 1.602241
v 1.395884 0.128324 1.399179
v 1.395326 1.160186 1.396333
v 1.302435 2.252814 1.415413
v 0.993533 3.489890 1.478860
v 0.917192 4.580408 1.480938
v 1.628457 6.730312 0.679116
v 2.959129 11.161489 -1.347097
v 1.819216 7.329090 0.612912
v -1.238209 0.871429 1.464003
v -1.071895 2.292844 1.363694
v -1.696604 4.616589 0.323924
v -1.036949 3.979842 1.144472
v -5.236047 8.735894 -1.076672
v -1.000458 4.907784 1.168376
v -0.947242 6.028942 0.641306
v -0.825993 6.518655 1.359595
v -1.125192 6.872021 -0.235761
v -0.785282 7.820102 1.360162
vt 0.061051 0.350753
vt 0.079706 0.350753
vt 0.163658 0.313442
vt 0.331560 0.313442
vt 0.434167 0.350753
vt 0.061051 0.388065
vt 0.154330 0.425377
vt 0.172985 0.425377
vt 0.378199 0.425377
vt 0.415511 0.425377
vt 0.434167 0.388065
vt 0.061051 0.425377
vt 0.098362 0.462688
vt 0.172985 0.500000
vt 0.303576 0.462688
vt 0.434167 0.425377
vt 0.061051 0.462688
vt 0.247609 0.425377
vt 0.359544 0.462688
vt 0.434167 0.462688
vt 0.061051 0.500000
vt 0.135674 0.537312
vt 0.191641 0.537312
vt 0.247609 0.500000
vt 0.266265 0.537312
vt 0.303576 0.500000
vt 0.340888 0.500000
vt 0.434167 0.537312
vt 0.434167 0.500000
vt 0.061051 0.537312
vt 0.061051 0.574623
vt 0.172985 0.537312
vt 0.210297 0.537312
vt 0.303576 0.537312
vt 0.322232 0.537312
vt 0.378199 0.574623
vt 0.061051 0.611935
vt 0.172985 0.574623
vt 0.247609 0.574623
vt 0.322232 0.574623
vt 0.359544 0.574623
vt 0.396855 0.574623
vt 0.434167 0.574623
vt 0.098362 0.649247
vt 0.191641 0.574623
vt 0.284920 0.611935
vt 0.378199 0.611935
vt 0.378199 0.649247
vt 0.434167 0.611935
vt 0.061051 0.649247
vt 0.079706 0.649247
vt 0.145002 0.686558
vt 0.154330 0.649247
vt 0.172985 0.649247
vt 0.368872 0.686558
vt 0.406183 0.686558
vt 0.434167 0.649247
vt 0.070378 0.313442
vt 0.406183 0.313442
vt 0.424839 0.313442
vt 0.070378 0.686558
vt 0.089034 0.686558
vt 0.163658 0.686558
vt 0.745964 0.226328
vt 0.770889 0.251253
vt 0.733502 0.226328
vt 0.733502 0.238791
vt 0.770889 0.226328
vt 0.808276 0.238791
vt 0.783351 0.226328
vt 0.808276 0.226328
vt 0.833200 0.226328
vt 0.845663 0.226328
vt 0.733502 0.251253
vt 0.858125 0.251253
vt 0.858125 0.226328
vt 0.858125 0.238791
vt 0.733502 0.263715
vt 0.858125 0.263715
vt 0.733502 0.276178
vt 0.733502 0.288640
vt 0.858125 0.276178
vt 0.845663 0.350952
vt 0.858125 0.288640
vt 0.733502 0.301102
vt 0.770889 0.350952
vt 0.858125 0.301102
vt 0.733502 0.313565
vt 0.733502 0.350952
vt 0.833200 0.350952
vt 0.808276 0.350952
vt 0.858125 0.350952
vt 0.745964 0.350952
vt 0.733502 0.388339
vt 0.858125 0.388339
vt 0.733502 0.438188
vt 0.808276 0.438188
vt 0.858125 0.438188
vt 0.833200 0.475575
vt 0.858125 0.450650
vt 0.733502 0.475575
vt 0.808276 0.475575
vt 0.845663 0.475575
vt 0.783351 0.475575
vt 0.858125 0.475575
vt 0.733502 0.512962
vt 0.808276 0.525424
vt 0.733502 0.525424
vt 0.858125 0.525424
vt 0.783351 0.525424
vt 0.858125 0.537887
vt 0.733502 0.537887
vt 0.733502 0.550349
vt 0.858125 0.550349
vt 0.733502 0.562811
vt 0.808276 0.600198
vt 0.858125 0.562811
vt 0.733502 0.575273
vt 0.858125 0.575273
vt 0.770889 0.600198
vt 0.733502 0.587736
vt 0.833200 0.600198
vt 0.858125 0.587736
vt 0.733502 0.600198
vt 0.745964 0.600198
vt 0.783351 0.600198
vt 0.845663 0.600198
vt 0.858125 0.600198
vt 0.733502 0.612660
vt 0.733502 0.625123
vt 0.858125 0.612660
vt 0.733502 0.637585
vt 0.858125 0.625123
vt 0.858125 0.637585
vt 0.733502 0.687434
vt 0.833200 0.724821
vt 0.858125 0.687434
vt 0.733502 0.724821
vt 0.745964 0.724821
vt 0.770889 0.724821
vt 0.783351 0.724821
vt 0.808276 0.724821
vt 0.845663 0.724821
vt 0.858125 0.724821
vt 0.970286 0.226328
vt 0.982748 0.226328
vt 0.982748 0.238791
vt 0.957824 0.226328
vt 0.945361 0.226328
vt 0.895512 0.226328
vt 0.982748 0.251253
vt 0.982748 0.263715
vt 0.982748 0.276178
vt 0.982748 0.288640
vt 0.957824 0.350952
vt 0.982748 0.301102
vt 0.957824 0.313565
vt 0.982748 0.350952
vt 0.945361 0.350952
vt 0.895512 0.350952
vt 0.608879 0.226328
vt 0.621341 0.226328
vt 0.608879 0.238791
vt 0.633803 0.226328
vt 0.646266 0.226328
vt 0.696115 0.226328
vt 0.608879 0.251253
vt 0.608879 0.263715
vt 0.696115 0.263715
vt 0.608879 0.276178
vt 0.646266 0.288640
vt 0.608879 0.288640
vt 0.608879 0.301102
vt 0.696115 0.301102
vt 0.646266 0.313565
vt 0.608879 0.313565
vt 0.608879 0.350952
vt 0.646266 0.350952
vt 0.696115 0.350952
vn 0.445550 -0.837039 0.317570
vn 0.248959 -0.875509 -0.414130
vn 0.416636 -0.908957 -0.014550
vn 0.214369 -0.629284 -0.747026
vn 0.331918 -0.943089 0.020316
vn -0.013106 -0.971347 -0.237302
vn 0.839817 -0.429871 0.331539
vn 0.456591 -0.837378 0.300538
vn 0.523343 -0.674304 -0.520985
vn 0.412716 -0.171760 -0.894519
vn -0.367103 -0.644075 -0.671120
vn -0.104840 -0.994487 -0.001912
vn 0.300639 -0.946102 0.120449
vn 0.785007 -0.505804 0.357668
vn 0.464579 0.031171 -0.884983
vn 0.212364 0.632374 -0.744987
vn -0.092236 -0.244658 -0.965212
vn -0.119699 0.339766 -0.932862
vn -0.788084 -0.584155 -0.194128
vn -0.606187 -0.634094 0.480065
vn -0.340709 -0.489531 0.802669
vn -0.145131 -0.451086 0.880601
vn 0.805923 -0.556814 0.201110
vn 0.576155 0.163480 -0.800824
vn -0.683109 0.362388 -0.634064
vn -0.430261 0.825489 -0.365299
vn -0.917811 0.133528 0.373890
vn -0.614602 0.411598 0.672943
vn 0.509991 0.174987 0.842193
vn 0.967722 -0.029398 0.250298
vn -0.731571 0.675812 0.089899
vn -0.172972 0.661047 0.730135
vn -0.279011 0.880765 0.382631
vn 0.045125 0.792501 0.608199
vn 0.410082 0.716593 0.564205
vn -0.184137 0.299502 -0.936158
vn -0.061832 0.983502 -0.170002
vn -0.061345 0.918415 -0.390834
vn -0.351917 0.928759 0.116453
vn -0.348878 0.928277 -0.128789
vn -0.106307 0.215895 -0.970612
vn 0.065306 0.987088 -0.146260
vn -0.080715 0.967147 -0.241063
vn -0.136266 0.966510 -0.217461
vn -0.062644 0.994326 -0.085974
vn -0.622504 0.632960 0.460273
vn -0.074774 0.097509 0.992422
vn -0.591268 0.246160 0.767989
vn 0.001393 0.057770 0.998329
vn -0.445890 0.856693 0.259343
vn 0.207818 0.791881 0.574227
vn -0.442655 0.845794 0.297807
vn -0.153579 0.944688 0.289790
vn 0.868846 0.451519 0.203072
vn 0.467187 0.273372 0.840835
vn -0.019088 0.103779 0.994417
vn -0.012386 0.038289 0.999190
vn 0.692646 0.024959 0.720845
vn 0.232783 0.002808 0.972525
vn -0.288907 0.016845 0.957209
vn -0.046957 -0.025270 0.998577
vn -0.492953 -0.050712 0.868577
vn -0.109558 0.015703 0.993856
vn 0.006635 0.013489 0.999887
vn 0.113457 0.004475 0.993533
vn 0.745843 -0.008280 0.666071
vn 0.440076 -0.093814 0.893046
vn -0.211959 0.012610 0.977197
vn 0.648037 -0.029627 0.761032
vn 0.059283 0.006442 0.998220
vn -0.277220 0.150623 0.948926
vn 0.050403 0.079835 0.995533
vn 0.163203 -0.679556 0.715240
vn -0.044375 -0.556237 0.829838
vn 0.964480 0.256231 -0.064212
vn -0.023587 0.997088 -0.072517
vn -0.705705 0.564927 0.427596
vn -0.243531 0.959526 0.141433
vn -0.631677 0.620371 0.464892
vn -0.382009 -0.405902 0.830248
vn -0.246094 0.507414 -0.825814
vn 0.783220 0.561951 -0.266040
vn 0.699784 0.714136 0.017652
vn 0.962806 0.173774 0.206901
vn -0.739602 0.569059 0.359389
vn 0.346100 0.927785 0.139390
vn 0.852051 0.472036 -0.226255
vn 0.637245 0.651699 -0.411348
vn 0.169760 0.108932 -0.979447
vn -0.782967 0.574067 0.239603
vn 0.602820 0.797812 -0.010221
vn 0.007184 0.039223 -0.999205
vn -0.748594 0.593316 0.295946
vn 0.221599 0.333879 -0.916198
vn -0.227692 0.399282 -0.888105
vn -0.242966 0.196516 -0.949921
vn 0.179953 -0.082628 -0.980199
vn -0.157704 0.144663 -0.976833
vn -0.195105 0.101927 -0.975472
vn 0.237526 0.167086 -0.956903
vn -0.059959 0.117922 -0.991211
vn 0.232050 0.111775 -0.966260
vn 0.983118 0.140278 -0.117475
vn -0.000595 0.197943 -0.980213
vn 0.281050 0.093674 -0.955110
vn 0.424703 -0.124900 -0.896676
vn 0.342809 0.204505 -0.916875
vn -0.160206 0.069132 -0.984660
vn 0.543285 -0.126433 -0.829974
vn -0.606562 -0.243658 -0.756778
vn 0.257300 0.026203 -0.965976
vn 0.017904 -0.007907 -0.999808
vn 0.170837 -0.050242 -0.984018
vn -0.247045 0.123284 -0.961129
vn 0.338119 0.178194 -0.924079
vn -0.274437 0.421551 -0.864280
vn -0.728827 0.387579 -0.564441
vn -0.893589 0.301472 -0.332585
vn 0.399149 0.381840 -0.833593
vn 0.271280 0.460246 -0.845329
vn 0.268096 -0.902734 -0.336447
vn -0.857153 0.181534 -0.482011
vn -0.501744 0.148600 -0.852156
vn -0.177674 -0.983940 0.017167
vn -0.280773 -0.951951 0.122295
vn -0.719793 -0.644142 -0.258801
vn 0.140451 -0.971873 -0.189040
vn 0.173759 -0.978750 -0.108886
vn 0.144540 -0.971171 0.189566
vn -0.114633 -0.986926 0.113301
vn -0.139546 -0.986782 0.082387
vn -0.131053 -0.982359 0.133403
vn -0.111536 -0.987410 0.112164
vn -0.025211 -0.999353 -0.025638
vn 0.096465 -0.992670 -0.072806
vn 0.076422 -0.986620 -0.144017
vn -0.148936 -0.987958 0.041916
vn 0.212657 -0.945922 -0.244967
vn 0.053323 -0.994095 -0.094508
vn -0.052831 -0.998174 0.029274
vn -0.728145 -0.403995 0.553709
vn -0.103236 -0.988473 0.110738
vn 0.015061 -0.999032 -0.041338
vn 0.343005 -0.931898 0.117958
vn 0.739550 -0.612628 0.278841
vn 0.540753 -0.821293 -0.181836
vn 0.461068 -0.885509 0.057365
vn 0.450426 -0.812115 -0.370925
vn 0.948440 0.174836 -0.264374
vn 0.874384 0.410199 -0.259208
vn 0.556306 0.791766 0.252249
vn 0.180707 0.976801 0.114909
vn 0.798933 0.412764 0.437414
vn 0.996230 0.000778 0.086753
vn 0.997493 0.069547 -0.013084
vn 0.867861 0.488497 0.090486
vn 0.975674 0.188644 0.111688
vn 0.974543 0.218490 0.050279
vn 0.985662 0.162967 0.043736
vn 0.996077 -0.081211 -0.035150
vn 0.974906 -0.198442 -0.100889
vn 0.903560 -0.334051 -0.268307
vn 0.935084 -0.340358 -0.098868
vn -0.066554 0.036371 -0.997120
vn 0.357705 0.126879 -0.925175
vn 0.985764 0.011574 -0.167734
vn 0.971044 -0.230422 0.063075
vn 0.345098 0.129329 -0.929614
vn -0.615264 0.786389 -0.055164
vn 0.235193 0.502438 0.832009
vn 0.963569 0.255286 -0.079771
vn -0.696220 0.676090 -0.241206
vn -0.742990 0.318449 0.588690
vn -0.529663 0.154310 0.834054
vn -0.622795 0.185254 0.760137
vn -0.895409 -0.100641 0.433721
vn -0.992891 0.090733 0.077032
vn -0.995279 0.081881 -0.052110
vn -0.919724 -0.015924 0.392244
vn -0.948297 0.076524 0.308022
vn -0.940093 -0.118971 0.319486
vn -0.959230 0.061476 0.275860
vn -0.819537 -0.327570 0.470166
vn -0.881335 -0.469924 -0.049187
vn -0.416675 -0.415085 0.808756
vn -0.662602 -0.177740 0.727576
vn -0.776017 0.027944 0.630093
vn -0.853399 -0.163683 -0.494892
vn -0.890937 0.248062 0.380389
vn 0.427018 0.899711 -0.090419
vn -0.500193 0.167289 0.849601
vn -0.989061 0.034546 0.143403
vn -0.592645 0.751824 0.289021
vn -0.223991 0.905004 -0.361657
vn -0.981043 0.057340 0.185111
vn -0.997476 0.002740 0.070952
vn -0.983889 0.011819 0.178388
vn -0.948769 0.061773 0.309874
vn -0.906953 0.137641 0.398109
s 1
g pSphere2
usemtl initialShadingGroup
f 1/1/1 2/2/2 4/6/3
f 5/7/4 3/3/5 6/8/6
f 3/59/5 8/10/7 7/9/8
f 1/5/1 4/11/3 3/60/5
f 3/60/5 4/11/3 8/10/7
f 4/6/3 2/2/2 9/12/9
f 9/12/9 2/2/2 10/13/10
f 3/3/5 10/13/10 2/2/2
f 11/14/11 6/8/6 14/18/12
f 6/8/6 3/4/5 14/18/12
f 14/18/12 3/4/5 12/15/13
f 7/9/8 15/19/14 3/4/5
f 8/10/7 4/11/3 9/16/9
f 9/12/9 10/13/10 13/17/15
f 10/13/10 3/3/5 5/7/4
f 6/8/6 11/14/11 5/7/4
f 7/9/8 8/10/7 15/19/14
f 8/10/7 9/16/9 13/20/15
f 13/17/15 24/31/16 23/21/17
f 13/17/15 10/13/10 24/31/16
f 10/13/10 5/7/4 16/22/18
f 5/7/4 11/14/11 16/22/18
f 11/14/11 14/18/12 17/23/19
f 17/23/19 14/18/12 18/24/20
f 14/18/12 19/25/21 18/24/20
f 14/18/12 12/15/13 19/25/21
f 19/25/21 12/15/13 20/26/22
f 3/4/5 21/27/23 12/15/13
f 12/15/13 21/27/23 20/26/22
f 15/19/14 21/27/23 3/4/5
f 22/28/24 8/10/7 23/29/17
f 8/10/7 13/20/15 23/29/17
f 23/21/17 24/31/16 22/30/24
f 10/13/10 16/22/18 24/31/16
f 11/14/11 25/32/25 16/22/18
f 16/22/18 25/32/25 31/38/26
f 25/32/25 11/14/11 17/23/19
f 18/24/20 26/33/27 17/23/19
f 20/26/22 27/34/28 19/25/21
f 21/27/23 28/35/29 20/26/22
f 20/26/22 28/35/29 27/34/28
f 21/27/23 15/19/14 28/35/29
f 28/35/29 15/19/14 29/36/30
f 15/19/14 8/10/7 29/36/30
f 8/10/7 22/28/24 29/36/30
f 25/32/25 17/23/19 31/38/26
f 31/38/26 17/23/19 37/45/31
f 17/23/19 26/33/27 37/45/31
f 37/45/31 26/33/27 32/39/32
f 18/24/20 32/39/32 26/33/27
f 19/25/21 32/39/32 18/24/20
f 19/25/21 38/46/33 32/39/32
f 27/34/28 38/46/33 19/25/21
f 28/35/29 33/40/34 27/34/28
f 27/34/28 33/40/34 38/46/33
f 28/35/29 29/36/30 33/40/34
f 33/40/34 29/36/30 34/41/35
f 35/42/36 29/36/30 22/28/24
f 22/28/24 24/43/16 35/42/36
f 30/37/37 24/31/16 36/44/38
f 16/22/18 36/44/38 24/31/16
f 16/22/18 31/38/26 36/44/38
f 32/39/32 38/46/33 37/45/31
f 38/46/33 33/40/34 45/55/39
f 34/41/35 39/47/40 33/40/34
f 33/40/34 39/47/40 45/55/39
f 29/36/30 39/47/40 34/41/35
f 35/42/36 40/48/41 29/36/30
f 29/36/30 40/48/41 39/47/40
f 35/42/36 24/43/16 40/48/41
f 24/43/16 30/49/37 40/48/41
f 41/50/42 30/37/37 42/51/43
f 30/37/37 36/44/38 42/51/43
f 31/38/26 43/53/44 36/44/38
f 36/44/38 43/53/44 45/52/39
f 31/38/26 44/54/45 43/53/44
f 37/45/31 45/55/39 31/38/26
f 31/38/26 45/55/39 44/54/45
f 38/46/33 45/55/39 37/45/31
f 39/47/40 40/48/41 45/55/39
f 40/48/41 30/49/37 45/56/39
f 45/56/39 30/49/37 41/57/42
f 2/2/2 1/1/1 3/58/5
f 41/50/42 42/51/43 45/61/39
f 42/51/43 36/44/38 45/62/39
f 43/53/44 44/54/45 45/63/39
s 7
f 100/64/46 47/65/47 99/66/48
f 99/66/48 47/65/47 114/67/49
f 101/68/50 46/69/51 100/64/46
f 100/64/46 46/69/51 47/65/47
f 102/70/52 46/69/51 101/68/50
f 102/70/52 103/71/53 46/69/51
f 103/71/53 104/72/54 46/69/51
f 46/69/51 104/72/54 105/73/55
f 114/67/49 47/65/47 115/74/56
f 46/69/51 105/73/55 47/65/47
f 47/65/47 105/73/55 108/75/57
f 106/76/58 108/75/57 105/73/55
f 107/77/59 108/75/57 106/76/58
f 47/65/47 117/78/60 115/74/56
f 108/75/57 109/79/61 47/65/47
f 117/78/60 47/65/47 119/80/62
f 119/80/62 47/65/47 48/81/63
f 47/65/47 110/82/64 48/81/63
f 109/79/61 110/82/64 47/65/47
f 49/83/65 110/82/64 111/84/66
f 121/85/67 48/81/63 50/86/68
f 48/81/63 110/82/64 50/86/68
f 50/86/68 110/82/64 49/83/65
f 49/83/65 111/84/66 113/87/69
f 121/85/67 50/86/68 123/88/70
f 123/88/70 56/93/71 51/89/72
f 123/88/70 50/86/68 56/93/71
f 49/83/65 53/90/73 50/86/68
f 50/86/68 53/90/73 52/91/74
f 113/87/69 54/92/75 49/83/65
s 10
f 51/89/76 56/93/77 55/94/78
f 52/91/79 56/93/77 50/86/80
f 49/83/81 54/92/82 53/90/83
f 53/90/83 54/92/82 57/95/84
f 56/93/77 60/96/85 55/94/78
f 56/93/77 58/97/86 60/96/85
f 52/91/79 58/97/86 56/93/77
f 53/90/83 58/97/86 52/91/79
f 53/90/83 59/98/87 58/97/86
f 53/90/83 57/95/84 59/98/87
f 58/97/86 59/98/87 61/99/88
f 61/99/88 59/98/87 62/100/89
f 60/96/85 58/97/86 65/101/90
f 58/97/86 61/99/88 63/102/91
f 61/99/88 62/100/89 64/103/92
f 58/97/86 66/104/93 65/101/90
f 58/97/86 63/102/91 66/104/93
f 62/100/89 67/105/94 64/103/92
s 13
f 68/106/95 65/101/96 73/110/97
f 66/104/98 73/110/97 65/101/96
f 63/102/99 69/107/100 66/104/98
f 66/104/98 69/107/100 73/110/97
f 63/102/99 61/99/101 69/107/100
f 69/107/100 61/99/101 67/105/102
f 61/99/101 64/103/103 67/105/102
f 73/110/97 70/108/104 68/106/95
f 69/107/100 67/105/102 71/109/105
f 71/109/105 74/111/106 69/107/100
f 69/107/100 74/111/106 73/110/97
f 72/112/107 70/108/104 75/113/108
f 70/108/104 73/110/97 75/113/108
f 73/110/97 74/111/106 76/114/109
f 75/113/108 73/110/97 77/115/110
f 73/110/97 76/114/109 80/116/111
f 80/116/111 76/114/109 78/117/112
f 80/116/111 79/118/113 73/110/97
f 77/115/110 73/110/97 79/118/113
f 80/116/111 78/117/112 81/119/114
f 80/116/111 83/120/115 79/118/113
f 79/118/113 83/120/115 82/121/116
f 80/116/111 81/119/114 84/122/117
f 84/122/117 81/119/114 85/123/118
f 86/124/119 82/121/116 87/125/120
f 82/121/116 83/120/115 87/125/120
f 83/120/115 80/116/111 93/126/121
f 84/122/117 85/123/118 88/127/122
f 88/127/122 85/123/118 89/128/123
s 15
f 87/125/124 90/129/125 86/124/126
f 83/120/127 91/130/128 87/125/124
f 87/125/124 91/130/128 90/129/125
f 83/120/127 93/126/129 91/130/128
f 88/127/130 92/131/131 84/122/132
f 88/127/130 89/128/133 92/131/131
f 84/122/132 92/131/131 80/116/134
f 91/130/128 93/126/129 95/132/135
f 93/126/129 80/116/134 95/132/135
f 92/131/131 94/133/136 96/134/137
f 97/135/138 95/132/135 104/136/139
f 80/116/134 104/136/139 95/132/135
f 80/116/134 92/131/131 98/137/140
f 96/134/137 98/137/140 92/131/131
f 99/138/141 97/135/138 100/139/142
f 97/135/138 104/136/139 100/139/142
f 100/139/142 104/136/139 101/140/143
f 101/140/143 104/136/139 102/141/144
f 104/136/139 103/142/145 102/141/144
f 98/137/140 105/143/146 80/116/134
f 80/116/134 105/143/146 104/136/139
f 98/137/140 106/144/147 105/143/146
s 19
f 92/145/148 89/146/149 85/147/150
f 94/148/151 92/145/148 85/147/150
f 96/149/152 94/148/151 98/150/153
f 106/76/154 98/150/153 107/77/155
f 94/148/151 85/147/150 81/151/156
f 94/148/151 81/151/156 98/150/153
f 98/150/153 81/151/156 108/75/157
f 98/150/153 108/75/157 107/77/155
f 81/151/156 78/152/158 108/75/157
f 108/75/157 78/152/158 109/79/159
f 109/79/159 78/152/158 110/82/160
f 110/82/160 78/152/158 76/153/161
f 110/82/160 76/153/161 74/154/162
f 111/84/163 110/82/160 74/154/162
f 62/155/164 74/154/162 71/156/165
f 112/157/166 74/154/162 62/155/164
f 111/84/163 74/154/162 113/87/167
f 74/154/162 112/157/166 113/87/167
f 71/156/165 67/158/168 62/155/164
f 59/159/169 112/157/166 62/155/164
f 112/157/166 59/159/169 57/160/170
f 112/157/166 57/160/170 113/87/167
f 113/87/167 57/160/170 54/92/171
s 23
f 86/161/172 90/162/173 82/163/174
f 90/162/173 91/164/175 82/163/174
f 99/66/176 114/67/177 97/166/178
f 82/163/174 91/164/175 79/167/179
f 91/164/175 95/165/180 79/167/179
f 97/166/178 117/78/181 95/165/180
f 95/165/180 117/78/181 79/167/179
f 114/67/177 115/74/182 97/166/178
f 97/166/178 115/74/182 117/78/181
f 117/78/181 116/169/183 79/167/179
f 79/167/179 116/169/183 77/168/184
f 75/170/185 77/168/184 118/171/186
f 77/168/184 116/169/183 118/171/186
f 116/169/183 117/78/181 119/80/187
f 75/170/185 118/171/186 72/172/188
f 116/169/183 119/80/187 48/81/189
f 72/172/188 118/171/186 70/173/190
f 118/171/186 116/169/183 120/174/191
f 116/169/183 48/81/189 120/174/191
f 120/174/191 48/81/189 121/85/192
f 70/173/190 122/175/193 68/176/194
f 70/173/190 118/171/186 122/175/193
f 118/171/186 120/174/191 122/175/193
f 120/174/191 123/88/195 122/175/193
f 120/174/191 121/85/192 123/88/195
f 65/177/196 68/176/194 60/178/197
f 68/176/194 122/175/193 60/178/197
f 123/88/195 55/179/198 122/175/193
f 122/175/193 55/179/198 60/178/197
f 123/88/195 51/89/199 55/179/198
